<svg width="180" height="40" viewBox="0 0 180 40" fill="none" xmlns="http://www.w3.org/2000/svg">
<path fill-rule="evenodd" clip-rule="evenodd" d="M15.928 14.5469L3.01343 18.0437L15.928 22.3797L28.8426 18.0437L15.928 14.5469ZM17.7933 18.3236C17.7933 18.7099 16.9581 19.023 15.9279 19.023C14.8976 19.023 14.0624 18.7099 14.0624 18.3236C14.0624 17.9374 14.8976 17.6243 15.9279 17.6243C16.9581 17.6243 17.7933 17.9374 17.7933 18.3236Z" fill="#888B8C"/>
<path fill-rule="evenodd" clip-rule="evenodd" d="M11.1693 13.4289C12.206 14.9354 13.8286 16.5671 15.928 18.3236C18.0275 16.5671 19.5412 14.9354 20.5779 13.4289C21.6146 11.9223 22.1329 10.528 22.1329 9.24581C22.1329 7.32255 21.5038 5.79033 20.2454 4.64922C18.9869 3.50808 17.5297 2.9375 15.8736 2.9375C14.2175 2.9375 12.7602 3.50808 11.5019 4.64922C10.2434 5.79033 9.61426 7.32255 9.61426 9.24581C9.61426 10.528 10.1326 11.9223 11.1693 13.4289ZM18.9416 9.0919C18.9416 10.7142 17.5925 12.0293 15.9282 12.0293C14.264 12.0293 12.9148 10.7142 12.9148 9.0919C12.9148 7.46965 14.264 6.15455 15.9282 6.15455C17.5925 6.15455 18.9416 7.46965 18.9416 9.0919Z" fill="#ECB44B"/>
<path d="M44.8988 15.4243V21.1845C44.6053 21.3606 44.2723 21.5146 43.8998 21.6467C43.5273 21.7787 43.1378 21.8888 42.7314 21.9767C42.3365 22.0759 41.9301 22.1474 41.5123 22.1913C41.1059 22.2355 40.722 22.2573 40.3609 22.2573C39.3449 22.2573 38.4361 22.0923 37.6348 21.7622C36.8445 21.4321 36.1729 20.9865 35.6198 20.4253C35.0779 19.8641 34.6603 19.215 34.3668 18.4777C34.0845 17.7295 33.9436 16.9427 33.9436 16.1175C33.9436 15.2481 34.096 14.4394 34.4007 13.6912C34.7169 12.943 35.1457 12.2938 35.6876 11.7436C36.2407 11.1935 36.9011 10.7643 37.6687 10.4562C38.4361 10.1371 39.2771 9.97759 40.1915 9.97759C41.2978 9.97759 42.2009 10.1151 42.9008 10.3902C43.6005 10.6543 44.1877 11.0229 44.6616 11.496L43.5103 12.7009C43.0137 12.2388 42.4888 11.9197 41.9355 11.7436C41.3824 11.5566 40.8012 11.463 40.1915 11.463C39.5029 11.463 38.8822 11.5896 38.3291 11.8427C37.7757 12.0847 37.3016 12.4148 36.9067 12.833C36.5115 13.2511 36.2068 13.7462 35.9923 14.3184C35.7778 14.8796 35.6705 15.4792 35.6705 16.1175C35.6705 16.7777 35.7892 17.3938 36.0262 17.9661C36.2631 18.5272 36.5905 19.0169 37.0083 19.435C37.4259 19.8531 37.9171 20.1832 38.4814 20.4253C39.0458 20.6564 39.6611 20.7719 40.3271 20.7719C40.9026 20.7719 41.4445 20.7224 41.9525 20.6234C42.4718 20.5133 42.912 20.3593 43.2733 20.1612V16.9097H40.615V15.4243H44.8988ZM48.6293 18.5932C48.6293 18.9344 48.7026 19.248 48.8494 19.534C49.0074 19.8092 49.2107 20.0457 49.4591 20.2437C49.7072 20.4418 49.9951 20.5958 50.3225 20.7059C50.6499 20.816 50.9885 20.8709 51.3386 20.8709C51.8127 20.8709 52.2247 20.7664 52.5745 20.5573C52.9243 20.3373 53.2461 20.0511 53.5398 19.6991L54.6912 20.5573C53.8445 21.6247 52.6593 22.1583 51.1353 22.1583C50.5032 22.1583 49.9274 22.0538 49.4081 21.8447C48.9003 21.6356 48.4657 21.3496 48.1044 20.9865C47.7544 20.6123 47.4835 20.1777 47.2917 19.6826C47.0996 19.1764 47.0038 18.6317 47.0038 18.0486C47.0038 17.4654 47.1054 16.9262 47.3085 16.4311C47.523 15.9249 47.8109 15.4903 48.1722 15.1272C48.5447 14.753 48.9849 14.4615 49.4929 14.2524C50.001 14.0433 50.5539 13.9388 51.1523 13.9388C51.8634 13.9388 52.4616 14.0598 52.9472 14.3019C53.4438 14.544 53.8502 14.8631 54.1663 15.2592C54.4823 15.6443 54.708 16.0845 54.8435 16.5796C54.9903 17.0637 55.0637 17.5589 55.0637 18.0651V18.5932H48.6293ZM53.4382 17.4049C53.4267 17.0748 53.3704 16.7722 53.2688 16.4971C53.1783 16.222 53.0374 15.9854 52.8456 15.7874C52.6535 15.5783 52.4109 15.4188 52.1174 15.3087C51.8351 15.1877 51.5021 15.1272 51.1184 15.1272C50.7459 15.1272 50.4015 15.1986 50.0856 15.3417C49.7808 15.4738 49.521 15.6499 49.3067 15.8699C49.0922 16.0899 48.9228 16.3375 48.7987 16.6126C48.6858 16.8767 48.6293 17.1408 48.6293 17.4049H53.4382ZM58.1228 18.0486C58.1228 18.4447 58.1849 18.8133 58.309 19.1544C58.4331 19.4845 58.6081 19.7706 58.8339 20.0127C59.0596 20.2437 59.3363 20.4307 59.6634 20.5738C59.9908 20.7059 60.3577 20.7719 60.7641 20.7719C61.1704 20.7719 61.5375 20.7059 61.8647 20.5738C62.1921 20.4307 62.4688 20.2437 62.6945 20.0127C62.9202 19.7706 63.0953 19.4845 63.2193 19.1544C63.3434 18.8133 63.4056 18.4447 63.4056 18.0486C63.4056 17.6524 63.3434 17.2893 63.2193 16.9592C63.0953 16.6181 62.9202 16.332 62.6945 16.101C62.4688 15.8588 62.1921 15.6718 61.8647 15.5398C61.5375 15.3967 61.1704 15.3252 60.7641 15.3252C60.3577 15.3252 59.9908 15.3967 59.6634 15.5398C59.3363 15.6718 59.0596 15.8588 58.8339 16.101C58.6081 16.332 58.4331 16.6181 58.309 16.9592C58.1849 17.2893 58.1228 17.6524 58.1228 18.0486ZM56.4971 18.0486C56.4971 17.4763 56.6043 16.9427 56.8188 16.4476C57.0446 15.9524 57.3493 15.5178 57.7332 15.1437C58.1172 14.7695 58.5684 14.478 59.0879 14.2689C59.6071 14.0489 60.1658 13.9388 60.7641 13.9388C61.3623 13.9388 61.921 14.0489 62.4405 14.2689C62.9597 14.478 63.4112 14.7695 63.7951 15.1437C64.1788 15.5178 64.478 15.9524 64.6925 16.4476C64.9182 16.9427 65.0311 17.4763 65.0311 18.0486C65.0311 18.6208 64.9182 19.1599 64.6925 19.6661C64.478 20.1612 64.1788 20.5958 63.7951 20.97C63.4112 21.3331 62.9597 21.6247 62.4405 21.8447C61.921 22.0538 61.3623 22.1583 60.7641 22.1583C60.1658 22.1583 59.6071 22.0538 59.0879 21.8447C58.5684 21.6247 58.1172 21.3331 57.7332 20.97C57.3493 20.5958 57.0446 20.1612 56.8188 19.6661C56.6043 19.1599 56.4971 18.6208 56.4971 18.0486ZM67.6854 19.5175C67.9787 19.9466 68.3514 20.2657 68.8029 20.4748C69.2655 20.6729 69.7397 20.7719 70.2253 20.7719C70.4961 20.7719 70.7726 20.7334 71.0548 20.6564C71.3369 20.5684 71.5909 20.4418 71.8169 20.2768C72.0538 20.1117 72.2457 19.9082 72.3926 19.6661C72.5392 19.424 72.6128 19.1434 72.6128 18.8243C72.6128 18.3732 72.4658 18.0321 72.1725 17.801C71.8788 17.5589 71.5121 17.3608 71.0719 17.2068C70.6428 17.0418 70.1687 16.8878 69.6495 16.7447C69.1415 16.5907 68.6673 16.3815 68.2271 16.1175C67.798 15.8534 67.437 15.5013 67.1435 15.0612C66.85 14.6101 66.7032 14.0048 66.7032 13.2456C66.7032 12.9045 66.7766 12.5414 66.9234 12.1563C67.0813 11.7711 67.3241 11.419 67.6515 11.0999C67.9789 10.7808 68.3965 10.5168 68.9045 10.3077C69.4237 10.0876 70.0446 9.97759 70.7669 9.97759C71.4217 9.97759 72.0482 10.0656 72.6464 10.2417C73.2447 10.4177 73.7697 10.7753 74.2212 11.3145L72.9004 12.4864C72.6974 12.1782 72.4095 11.9307 72.037 11.7436C71.6645 11.5566 71.2411 11.463 70.7669 11.463C70.3155 11.463 69.9374 11.5236 69.6326 11.6446C69.3389 11.7546 69.102 11.9032 68.9213 12.0902C68.7407 12.2663 68.6108 12.4588 68.532 12.6679C68.4642 12.877 68.4304 13.0695 68.4304 13.2456C68.4304 13.7407 68.5771 14.1204 68.8706 14.3844C69.1641 14.6485 69.5252 14.8631 69.9542 15.0281C70.3945 15.1932 70.8686 15.3417 71.3766 15.4738C71.8958 15.6058 72.3698 15.7928 72.799 16.0349C73.2393 16.266 73.6059 16.5851 73.8994 16.9922C74.1929 17.3884 74.3397 17.9385 74.3397 18.6427C74.3397 19.2039 74.2268 19.7101 74.0011 20.1612C73.7866 20.6123 73.4931 20.9919 73.1206 21.3001C72.7481 21.6082 72.3078 21.8447 71.7998 22.0097C71.292 22.1749 70.7501 22.2573 70.1743 22.2573C69.4067 22.2573 68.6785 22.1253 67.9901 21.8613C67.3015 21.5972 66.7539 21.19 66.3476 20.6399L67.6854 19.5175ZM76.3489 14.1369H77.8729V15.2592H77.9068C78.2003 14.8411 78.6011 14.5165 79.1089 14.2854C79.6283 14.0543 80.1588 13.9388 80.7007 13.9388C81.3216 13.9388 81.8803 14.0433 82.3769 14.2524C82.8849 14.4615 83.3137 14.753 83.6638 15.1272C84.025 15.5013 84.3017 15.9414 84.4936 16.4476C84.6854 16.9427 84.7812 17.4763 84.7812 18.0486C84.7812 18.6317 84.6854 19.1764 84.4936 19.6826C84.3017 20.1777 84.025 20.6123 83.6638 20.9865C83.3137 21.3496 82.8849 21.6356 82.3769 21.8447C81.8803 22.0538 81.3216 22.1583 80.7007 22.1583C80.1249 22.1583 79.583 22.0429 79.075 21.8117C78.5672 21.5696 78.1777 21.2451 77.9068 20.8379H77.8729V26.6147H76.3489V14.1369ZM80.5145 15.3252C80.1081 15.3252 79.741 15.3967 79.4138 15.5398C79.0864 15.6718 78.8098 15.8588 78.584 16.101C78.3583 16.332 78.1833 16.6181 78.0592 16.9592C77.9351 17.2893 77.8729 17.6524 77.8729 18.0486C77.8729 18.4447 77.9351 18.8133 78.0592 19.1544C78.1833 19.4845 78.3583 19.7706 78.584 20.0127C78.8098 20.2437 79.0864 20.4307 79.4138 20.5738C79.741 20.7059 80.1081 20.7719 80.5145 20.7719C80.9208 20.7719 81.2877 20.7059 81.6149 20.5738C81.9422 20.4307 82.2189 20.2437 82.4447 20.0127C82.6704 19.7706 82.8454 19.4845 82.9695 19.1544C83.0936 18.8133 83.1557 18.4447 83.1557 18.0486C83.1557 17.6524 83.0936 17.2893 82.9695 16.9592C82.8454 16.6181 82.6704 16.332 82.4447 16.101C82.2189 15.8588 81.9422 15.6718 81.6149 15.5398C81.2877 15.3967 80.9208 15.3252 80.5145 15.3252ZM86.7341 15.0942C87.1631 14.7091 87.6597 14.4229 88.2243 14.2359C88.7886 14.0378 89.353 13.9388 89.9175 13.9388C90.5043 13.9388 91.0067 14.0103 91.4245 14.1534C91.8533 14.2965 92.2034 14.4889 92.4742 14.7311C92.7451 14.9732 92.9425 15.2537 93.0668 15.5728C93.2024 15.8809 93.2701 16.2055 93.2701 16.5466V20.5408C93.2701 20.816 93.2757 21.069 93.287 21.3001C93.2982 21.5311 93.315 21.7512 93.3377 21.9603H91.9833C91.9494 21.5641 91.9323 21.168 91.9323 20.7719H91.8984C91.5598 21.2781 91.1591 21.6356 90.6964 21.8447C90.2335 22.0538 89.6974 22.1583 89.0877 22.1583C88.7152 22.1583 88.3596 22.1089 88.021 22.0097C87.6824 21.9107 87.3833 21.7622 87.1236 21.5641C86.8752 21.3661 86.6776 21.124 86.531 20.8379C86.3841 20.5408 86.3109 20.1997 86.3109 19.8146C86.3109 19.3084 86.4235 18.8849 86.6495 18.5437C86.8865 18.2026 87.2024 17.9276 87.5978 17.7185C88.0042 17.4984 88.4725 17.3443 89.0031 17.2563C89.5448 17.1573 90.1206 17.1078 90.7303 17.1078H91.8477V16.7777C91.8477 16.5796 91.808 16.3815 91.7293 16.1835C91.65 15.9854 91.5316 15.8093 91.3736 15.6553C91.2154 15.4903 91.0179 15.3637 90.781 15.2757C90.544 15.1767 90.2617 15.1272 89.9344 15.1272C89.6409 15.1272 89.3812 15.1547 89.1555 15.2097C88.941 15.2647 88.7433 15.3363 88.5629 15.4243C88.3822 15.5013 88.2184 15.5948 88.0719 15.7048C87.9249 15.8149 87.784 15.9194 87.6485 16.0184L86.7341 15.0942ZM91.035 18.1971C90.6737 18.1971 90.3012 18.2191 89.9175 18.2631C89.5448 18.2961 89.2006 18.3676 88.8847 18.4777C88.5797 18.5878 88.3257 18.7418 88.1226 18.9398C87.9305 19.1379 87.8347 19.3909 87.8347 19.6991C87.8347 20.1502 87.9871 20.4748 88.2918 20.6729C88.608 20.8709 89.0312 20.97 89.5619 20.97C89.9795 20.97 90.3351 20.904 90.6286 20.7719C90.9221 20.6288 91.1591 20.4473 91.3397 20.2272C91.5203 20.0072 91.65 19.7651 91.7293 19.501C91.808 19.2259 91.8477 18.9563 91.8477 18.6923V18.1971H91.035ZM99.7815 15.4243H97.597V18.9728C97.597 19.1929 97.6029 19.413 97.6141 19.633C97.6253 19.8422 97.6648 20.0346 97.7326 20.2107C97.8116 20.3758 97.9247 20.5133 98.0712 20.6234C98.2294 20.7224 98.4551 20.7719 98.7486 20.7719C98.9293 20.7719 99.1155 20.7554 99.3074 20.7224C99.4992 20.6894 99.6742 20.6288 99.8322 20.5408V21.8943C99.6518 21.9933 99.4146 22.0593 99.1211 22.0923C98.8388 22.1365 98.6189 22.1583 98.4607 22.1583C97.8737 22.1583 97.4166 22.0812 97.0893 21.9273C96.7731 21.7622 96.5361 21.5531 96.3779 21.3001C96.2314 21.047 96.141 20.7664 96.1071 20.4583C96.0847 20.1393 96.0732 19.8201 96.0732 19.501V15.4243H94.3122V14.1369H96.0732V11.9417H97.597V14.1369H99.7815V15.4243ZM101.866 14.1369H103.39V21.9603H101.866V14.1369ZM101.511 11.331C101.511 11.0339 101.618 10.7808 101.832 10.5718C102.058 10.3517 102.323 10.2417 102.628 10.2417C102.933 10.2417 103.192 10.3517 103.407 10.5718C103.633 10.7808 103.746 11.0339 103.746 11.331C103.746 11.6281 103.633 11.8867 103.407 12.1067C103.192 12.3158 102.933 12.4203 102.628 12.4203C102.323 12.4203 102.058 12.3158 101.832 12.1067C101.618 11.8867 101.511 11.6281 101.511 11.331ZM105.849 15.0942C106.278 14.7091 106.775 14.4229 107.339 14.2359C107.904 14.0378 108.468 13.9388 109.032 13.9388C109.619 13.9388 110.122 14.0103 110.539 14.1534C110.968 14.2965 111.319 14.4889 111.589 14.7311C111.86 14.9732 112.058 15.2537 112.182 15.5728C112.318 15.8809 112.385 16.2055 112.385 16.5466V20.5408C112.385 20.816 112.391 21.069 112.402 21.3001C112.413 21.5311 112.43 21.7512 112.453 21.9603H111.098C111.065 21.5641 111.047 21.168 111.047 20.7719H111.014C110.675 21.2781 110.274 21.6356 109.812 21.8447C109.349 22.0538 108.813 22.1583 108.203 22.1583C107.83 22.1583 107.475 22.1089 107.136 22.0097C106.798 21.9107 106.498 21.7622 106.239 21.5641C105.99 21.3661 105.793 21.124 105.646 20.8379C105.499 20.5408 105.426 20.1997 105.426 19.8146C105.426 19.3084 105.539 18.8849 105.765 18.5437C106.002 18.2026 106.318 17.9276 106.713 17.7185C107.119 17.4984 107.588 17.3443 108.118 17.2563C108.66 17.1573 109.236 17.1078 109.845 17.1078H110.963V16.7777C110.963 16.5796 110.923 16.3815 110.844 16.1835C110.765 15.9854 110.647 15.8093 110.489 15.6553C110.331 15.4903 110.133 15.3637 109.896 15.2757C109.659 15.1767 109.377 15.1272 109.049 15.1272C108.756 15.1272 108.496 15.1547 108.271 15.2097C108.056 15.2647 107.858 15.3363 107.678 15.4243C107.497 15.5013 107.334 15.5948 107.187 15.7048C107.04 15.8149 106.899 15.9194 106.764 16.0184L105.849 15.0942ZM110.15 18.1971C109.789 18.1971 109.416 18.2191 109.032 18.2631C108.66 18.2961 108.316 18.3676 108 18.4777C107.695 18.5878 107.441 18.7418 107.238 18.9398C107.046 19.1379 106.95 19.3909 106.95 19.6991C106.95 20.1502 107.102 20.4748 107.407 20.6729C107.723 20.8709 108.146 20.97 108.677 20.97C109.095 20.97 109.45 20.904 109.744 20.7719C110.037 20.6288 110.274 20.4473 110.455 20.2272C110.635 20.0072 110.765 19.7651 110.844 19.501C110.923 19.2259 110.963 18.9563 110.963 18.6923V18.1971H110.15ZM114.714 9.48242H116.238V21.9603H114.714V9.48242ZM119.053 10.2747H120.679V15.1272H126.893V10.2747H128.518V21.9603H126.893V16.6126H120.679V21.9603H119.053V10.2747ZM132.45 18.0486C132.45 18.4447 132.512 18.8133 132.636 19.1544C132.76 19.4845 132.935 19.7706 133.161 20.0127C133.387 20.2437 133.664 20.4307 133.991 20.5738C134.318 20.7059 134.685 20.7719 135.092 20.7719C135.498 20.7719 135.865 20.7059 136.192 20.5738C136.519 20.4307 136.796 20.2437 137.022 20.0127C137.247 19.7706 137.423 19.4845 137.547 19.1544C137.671 18.8133 137.733 18.4447 137.733 18.0486C137.733 17.6524 137.671 17.2893 137.547 16.9592C137.423 16.6181 137.247 16.332 137.022 16.101C136.796 15.8588 136.519 15.6718 136.192 15.5398C135.865 15.3967 135.498 15.3252 135.092 15.3252C134.685 15.3252 134.318 15.3967 133.991 15.5398C133.664 15.6718 133.387 15.8588 133.161 16.101C132.935 16.332 132.76 16.6181 132.636 16.9592C132.512 17.2893 132.45 17.6524 132.45 18.0486ZM130.825 18.0486C130.825 17.4763 130.932 16.9427 131.146 16.4476C131.372 15.9524 131.677 15.5178 132.061 15.1437C132.444 14.7695 132.896 14.478 133.415 14.2689C133.934 14.0489 134.493 13.9388 135.092 13.9388C135.69 13.9388 136.248 14.0489 136.768 14.2689C137.287 14.478 137.739 14.7695 138.122 15.1437C138.506 15.5178 138.805 15.9524 139.02 16.4476C139.245 16.9427 139.359 17.4763 139.359 18.0486C139.359 18.6208 139.245 19.1599 139.02 19.6661C138.805 20.1612 138.506 20.5958 138.122 20.97C137.739 21.3331 137.287 21.6247 136.768 21.8447C136.248 22.0538 135.69 22.1583 135.092 22.1583C134.493 22.1583 133.934 22.0538 133.415 21.8447C132.896 21.6247 132.444 21.3331 132.061 20.97C131.677 20.5958 131.372 20.1612 131.146 19.6661C130.932 19.1599 130.825 18.6208 130.825 18.0486ZM145.534 16.101C145.354 15.8809 145.128 15.6994 144.857 15.5563C144.597 15.4023 144.276 15.3252 143.893 15.3252C143.531 15.3252 143.215 15.4023 142.944 15.5563C142.684 15.6994 142.554 15.914 142.554 16.2C142.554 16.4311 142.628 16.6181 142.774 16.7612C142.933 16.9043 143.113 17.0198 143.316 17.1078C143.531 17.1958 143.756 17.2618 143.993 17.3058C144.231 17.3499 144.434 17.3884 144.603 17.4214C144.93 17.4984 145.236 17.5919 145.517 17.702C145.811 17.812 146.06 17.955 146.263 18.1311C146.477 18.3072 146.641 18.5218 146.754 18.7748C146.877 19.0278 146.941 19.336 146.941 19.6991C146.941 20.1393 146.844 20.5189 146.652 20.8379C146.46 21.1461 146.212 21.3991 145.907 21.5972C145.602 21.7952 145.252 21.9382 144.857 22.0263C144.474 22.1144 144.084 22.1583 143.689 22.1583C143.023 22.1583 142.436 22.0593 141.928 21.8613C141.431 21.6632 140.985 21.3001 140.59 20.7719L141.742 19.8476C141.99 20.0897 142.267 20.3043 142.571 20.4913C142.876 20.6783 143.249 20.7719 143.689 20.7719C143.881 20.7719 144.072 20.7554 144.264 20.7224C144.468 20.6783 144.643 20.6179 144.79 20.5408C144.947 20.4528 145.072 20.3482 145.163 20.2272C145.263 20.0952 145.315 19.9466 145.315 19.7816C145.315 19.5616 145.242 19.38 145.094 19.2369C144.959 19.0938 144.79 18.9839 144.586 18.9068C144.395 18.8189 144.185 18.7528 143.96 18.7088C143.745 18.6538 143.554 18.6097 143.384 18.5767C143.057 18.4997 142.746 18.4117 142.453 18.3127C142.159 18.2136 141.9 18.0816 141.674 17.9165C141.448 17.7515 141.267 17.5424 141.132 17.2893C140.997 17.0363 140.929 16.7227 140.929 16.3485C140.929 15.9414 141.014 15.5893 141.183 15.2922C141.363 14.9841 141.595 14.7311 141.877 14.533C142.171 14.3349 142.498 14.1864 142.859 14.0873C143.232 13.9883 143.604 13.9388 143.977 13.9388C144.518 13.9388 145.038 14.0378 145.534 14.2359C146.031 14.434 146.427 14.7641 146.72 15.2262L145.534 16.101ZM153.092 15.4243H150.908V18.9728C150.908 19.1929 150.914 19.413 150.924 19.633C150.936 19.8422 150.976 20.0346 151.043 20.2107C151.122 20.3758 151.235 20.5133 151.382 20.6234C151.54 20.7224 151.766 20.7719 152.059 20.7719C152.24 20.7719 152.426 20.7554 152.617 20.7224C152.81 20.6894 152.985 20.6288 153.142 20.5408V21.8943C152.962 21.9933 152.725 22.0593 152.432 22.0923C152.149 22.1365 151.93 22.1583 151.771 22.1583C151.184 22.1583 150.728 22.0812 150.4 21.9273C150.083 21.7622 149.846 21.5531 149.689 21.3001C149.542 21.047 149.452 20.7664 149.417 20.4583C149.396 20.1393 149.384 19.8201 149.384 19.501V15.4243H147.622V14.1369H149.384V11.9417H150.908V14.1369H153.092V15.4243ZM155.177 14.1369H156.701V21.9603H155.177V14.1369ZM154.821 11.331C154.821 11.0339 154.929 10.7808 155.143 10.5718C155.368 10.3517 155.634 10.2417 155.939 10.2417C156.243 10.2417 156.503 10.3517 156.717 10.5718C156.944 10.7808 157.056 11.0339 157.056 11.331C157.056 11.6281 156.944 11.8867 156.717 12.1067C156.503 12.3158 156.243 12.4203 155.939 12.4203C155.634 12.4203 155.368 12.3158 155.143 12.1067C154.929 11.8867 154.821 11.6281 154.821 11.331ZM159.126 14.1369H160.65V15.3417H160.683C160.875 14.9236 161.208 14.588 161.683 14.3349C162.157 14.0708 162.705 13.9388 163.325 13.9388C163.709 13.9388 164.075 13.9994 164.425 14.1204C164.787 14.2304 165.097 14.4064 165.357 14.6485C165.628 14.8906 165.842 15.2042 166.001 15.5893C166.159 15.9635 166.238 16.4091 166.238 16.9262V21.9603H164.714V17.3388C164.714 16.9757 164.662 16.6676 164.562 16.4146C164.46 16.1505 164.324 15.9414 164.154 15.7874C163.985 15.6223 163.788 15.5068 163.562 15.4408C163.348 15.3637 163.123 15.3252 162.884 15.3252C162.569 15.3252 162.276 15.3747 162.005 15.4738C161.733 15.5728 161.497 15.7324 161.293 15.9524C161.091 16.1615 160.931 16.4311 160.819 16.7612C160.706 17.0913 160.65 17.4819 160.65 17.933V21.9603H159.126V14.1369ZM176.578 21.8943C176.578 22.4884 176.47 23.0276 176.255 23.5118C176.053 24.0068 175.759 24.4307 175.376 24.7826C174.991 25.1459 174.529 25.4263 173.986 25.6243C173.446 25.8224 172.847 25.9216 172.191 25.9216C171.425 25.9216 170.719 25.8171 170.075 25.6079C169.443 25.3988 168.839 25.0357 168.264 24.5185L169.297 23.2641C169.692 23.6822 170.121 23.9959 170.583 24.2049C171.046 24.425 171.572 24.5351 172.158 24.5351C172.722 24.5351 173.192 24.4525 173.563 24.2875C173.936 24.1334 174.229 23.9299 174.444 23.6768C174.669 23.4237 174.827 23.1321 174.918 22.802C175.008 22.4829 175.054 22.1583 175.054 21.8282V20.6729H175.002C174.71 21.1461 174.308 21.4981 173.8 21.7292C173.303 21.9491 172.78 22.0593 172.226 22.0593C171.639 22.0593 171.091 21.9603 170.583 21.7622C170.086 21.5531 169.657 21.2725 169.297 20.9205C168.935 20.5573 168.653 20.1337 168.451 19.6495C168.247 19.1544 168.145 18.6208 168.145 18.0486C168.145 17.4763 168.241 16.9427 168.433 16.4476C168.626 15.9414 168.895 15.5013 169.246 15.1272C169.607 14.753 170.036 14.4615 170.533 14.2524C171.041 14.0433 171.605 13.9388 172.226 13.9388C172.768 13.9388 173.292 14.0543 173.8 14.2854C174.319 14.5165 174.727 14.8411 175.02 15.2592H175.054V14.1369H176.578V21.8943ZM172.412 15.3252C172.006 15.3252 171.639 15.3967 171.312 15.5398C170.985 15.6718 170.708 15.8588 170.482 16.101C170.256 16.332 170.081 16.6181 169.957 16.9592C169.832 17.2893 169.771 17.6524 169.771 18.0486C169.771 18.8408 170.007 19.4791 170.482 19.9632C170.956 20.4363 171.599 20.6729 172.412 20.6729C173.225 20.6729 173.869 20.4363 174.342 19.9632C174.816 19.4791 175.054 18.8408 175.054 18.0486C175.054 17.6524 174.991 17.2893 174.868 16.9592C174.743 16.6181 174.568 16.332 174.342 16.101C174.117 15.8588 173.84 15.6718 173.513 15.5398C173.186 15.3967 172.818 15.3252 172.412 15.3252Z" fill="white"/>
<path d="M36.5735 31.2172V33.2902H35.8535V31.2172L33.8948 28.0789H34.5289C34.5938 28.0789 34.6447 28.0946 34.6819 28.1261C34.7192 28.1576 34.7515 28.1965 34.7789 28.2424L36.0027 30.2682C36.0525 30.353 36.0936 30.433 36.1259 30.5082C36.1607 30.5831 36.1916 30.6572 36.219 30.73C36.2464 30.6548 36.2762 30.5796 36.3085 30.5044C36.3409 30.4293 36.3819 30.3506 36.4317 30.2682L37.6517 28.2424C37.6742 28.2037 37.704 28.1674 37.7413 28.1333C37.781 28.097 37.8322 28.0789 37.8943 28.0789H38.5358L36.5735 31.2172ZM43.8954 30.6863C43.8954 31.0767 43.8319 31.4354 43.7051 31.7628C43.5781 32.0876 43.3991 32.3676 43.1677 32.6028C42.9366 32.838 42.6579 33.0212 42.3321 33.1521C42.0087 33.2806 41.6506 33.3447 41.2577 33.3447C40.8646 33.3447 40.5064 33.2806 40.1831 33.1521C39.8597 33.0212 39.5824 32.838 39.3511 32.6028C39.1197 32.3676 38.9406 32.0876 38.8139 31.7628C38.6871 31.4354 38.6236 31.0767 38.6236 30.6863C38.6236 30.2959 38.6871 29.9383 38.8139 29.6135C38.9406 29.2861 39.1197 29.0048 39.3511 28.7698C39.5824 28.5322 39.8597 28.3479 40.1831 28.217C40.5064 28.0861 40.8646 28.0205 41.2577 28.0205C41.6506 28.0205 42.0087 28.0861 42.3321 28.217C42.6579 28.3479 42.9366 28.5322 43.1677 28.7698C43.3991 29.0048 43.5781 29.2861 43.7051 29.6135C43.8319 29.9383 43.8954 30.2959 43.8954 30.6863ZM43.1529 30.6863C43.1529 30.3663 43.108 30.0789 43.0185 29.8244C42.929 29.5698 42.8022 29.3552 42.6379 29.1807C42.4739 29.0037 42.2749 28.8679 42.041 28.7733C41.8072 28.6789 41.5463 28.6317 41.2577 28.6317C40.9716 28.6317 40.7115 28.6789 40.4779 28.7733C40.2441 28.8679 40.0437 29.0037 39.8772 29.1807C39.713 29.3552 39.5862 29.5698 39.4967 29.8244C39.4071 30.0789 39.3623 30.3663 39.3623 30.6863C39.3623 31.0063 39.4071 31.2937 39.4967 31.5482C39.5862 31.8004 39.713 32.015 39.8772 32.1919C40.0437 32.3665 40.2441 32.5009 40.4779 32.5956C40.7115 32.6878 40.9716 32.7337 41.2577 32.7337C41.5463 32.7337 41.8072 32.6878 42.041 32.5956C42.2749 32.5009 42.4739 32.3665 42.6379 32.1919C42.8022 32.015 42.929 31.8004 43.0185 31.5482C43.108 31.2937 43.1529 31.0063 43.1529 30.6863ZM46.9826 32.7302C47.2038 32.7302 47.4017 32.6937 47.5756 32.6209C47.75 32.5484 47.8965 32.4465 48.0159 32.3156C48.1379 32.1847 48.2299 32.0282 48.2921 31.8463C48.3567 31.6647 48.389 31.4647 48.389 31.2463V28.0789H49.1091V31.2463C49.1091 31.5468 49.0595 31.8258 48.9599 32.0828C48.8627 32.3396 48.7223 32.5628 48.5383 32.7519C48.3567 32.9388 48.1341 33.0852 47.8705 33.1921C47.6068 33.2988 47.3108 33.3521 46.9826 33.3521C46.6541 33.3521 46.3583 33.2988 46.0944 33.1921C45.831 33.0852 45.6071 32.9388 45.4231 32.7519C45.2391 32.5628 45.0972 32.3396 44.9976 32.0828C44.9007 31.8258 44.8522 31.5468 44.8522 31.2463V28.0789H45.5723V31.2428C45.5723 31.4609 45.6032 31.6609 45.6654 31.8428C45.7302 32.0247 45.8222 32.1809 45.9416 32.3119C46.0635 32.4428 46.2116 32.546 46.3855 32.6209C46.5623 32.6937 46.7611 32.7302 46.9826 32.7302ZM51.1713 31.1154V33.2902H50.4512V28.0789H51.9622C52.3004 28.0789 52.5928 28.1128 52.8389 28.1805C53.0851 28.2461 53.2877 28.3418 53.447 28.4679C53.6086 28.5938 53.728 28.7466 53.8051 28.9261C53.8823 29.1031 53.9209 29.302 53.9209 29.5226C53.9209 29.7068 53.8911 29.8789 53.8314 30.0389C53.7717 30.1989 53.6847 30.3431 53.5702 30.4717C53.4582 30.5978 53.3202 30.7058 53.156 30.7954C52.9944 30.885 52.8102 30.953 52.604 30.9991C52.6935 31.05 52.773 31.1239 52.8427 31.2209L54.4023 33.2902H53.7605C53.6286 33.2902 53.5316 33.2406 53.4695 33.1412L52.0816 31.2791C52.0392 31.2209 51.9932 31.1796 51.9436 31.1554C51.8938 31.1287 51.8191 31.1154 51.7197 31.1154H51.1713ZM51.1713 30.6026H51.9286C52.1399 30.6026 52.3253 30.5785 52.4844 30.53C52.6462 30.4791 52.7804 30.4087 52.8874 30.3191C52.9967 30.2268 53.0788 30.1178 53.1338 29.9917C53.1883 29.8658 53.2157 29.7263 53.2157 29.5735C53.2157 29.2631 53.11 29.0293 52.8986 28.8717C52.6897 28.7138 52.3774 28.6352 51.9622 28.6352H51.1713V30.6026ZM61.6301 30.6863C61.6301 31.0767 61.5668 31.4354 61.4398 31.7628C61.313 32.0876 61.134 32.3676 60.9026 32.6028C60.6713 32.838 60.3928 33.0212 60.067 33.1521C59.7436 33.2806 59.3855 33.3447 58.9924 33.3447C58.5995 33.3447 58.2413 33.2806 57.918 33.1521C57.5947 33.0212 57.3173 32.838 57.086 32.6028C56.8546 32.3676 56.6756 32.0876 56.5488 31.7628C56.4218 31.4354 56.3585 31.0767 56.3585 30.6863C56.3585 30.2959 56.4218 29.9383 56.5488 29.6135C56.6756 29.2861 56.8546 29.0048 57.086 28.7698C57.3173 28.5322 57.5947 28.3479 57.918 28.217C58.2413 28.0861 58.5995 28.0205 58.9924 28.0205C59.3855 28.0205 59.7436 28.0861 60.067 28.217C60.3928 28.3479 60.6713 28.5322 60.9026 28.7698C61.134 29.0048 61.313 29.2861 61.4398 29.6135C61.5668 29.9383 61.6301 30.2959 61.6301 30.6863ZM60.8878 30.6863C60.8878 30.3663 60.8429 30.0789 60.7534 29.8244C60.6639 29.5698 60.5371 29.3552 60.3728 29.1807C60.2086 29.0037 60.0098 28.8679 59.776 28.7733C59.5421 28.6789 59.2809 28.6317 58.9924 28.6317C58.7065 28.6317 58.4467 28.6789 58.2126 28.7733C57.9788 28.8679 57.7787 29.0037 57.6119 29.1807C57.4479 29.3552 57.3209 29.5698 57.2314 29.8244C57.1418 30.0789 57.0972 30.3663 57.0972 30.6863C57.0972 31.0063 57.1418 31.2937 57.2314 31.5482C57.3209 31.8004 57.4479 32.015 57.6119 32.1919C57.7787 32.3665 57.9788 32.5009 58.2126 32.5956C58.4467 32.6878 58.7065 32.7337 58.9924 32.7337C59.2809 32.7337 59.5421 32.6878 59.776 32.5956C60.0098 32.5009 60.2086 32.3665 60.3728 32.1919C60.5371 32.015 60.6639 31.8004 60.7534 31.5482C60.8429 31.2937 60.8878 31.0063 60.8878 30.6863ZM63.0123 28.0789C63.077 28.0789 63.1243 28.0874 63.1541 28.1042C63.1865 28.1189 63.2226 28.1503 63.2623 28.1989L66.3591 32.1265C66.3515 32.0634 66.3465 32.0028 66.3441 31.9447C66.3416 31.8841 66.3403 31.8258 66.3403 31.77V28.0789H66.9746V33.2902H66.6091C66.5516 33.2902 66.5032 33.2806 66.4635 33.2612C66.4262 33.2417 66.389 33.2089 66.3515 33.1628L63.2587 29.2389C63.2636 29.2994 63.2672 29.3589 63.2699 29.417C63.2724 29.4754 63.2735 29.5285 63.2735 29.577V33.2902H62.6394V28.0789H63.0123ZM69.0246 32.6974H71.3377V33.2902H68.3008V28.0789H69.0246V32.6974ZM73.0134 33.2902H72.2895V28.0789H73.0134V33.2902ZM74.8379 28.0789C74.9025 28.0789 74.9499 28.0874 74.9797 28.1042C75.012 28.1189 75.0482 28.1503 75.0879 28.1989L78.1845 32.1265C78.1771 32.0634 78.1721 32.0028 78.1697 31.9447C78.167 31.8841 78.1659 31.8258 78.1659 31.77V28.0789H78.8002V33.2902H78.4345C78.3772 33.2902 78.3288 33.2806 78.289 33.2612C78.2518 33.2417 78.2143 33.2089 78.1771 33.1628L75.0843 29.2389C75.089 29.2994 75.0928 29.3589 75.0955 29.417C75.0978 29.4754 75.0991 29.5285 75.0991 29.577V33.2902H74.465V28.0789H74.8379ZM83.4206 28.0789V28.6533H80.8538V30.3844H82.9319V30.9372H80.8538V32.7156H83.4206V33.2902H80.1264V28.0789H83.4206ZM88.3321 32.7774C88.4761 32.7774 88.6081 32.7713 88.7275 32.7593C88.8493 32.7447 88.9637 32.7241 89.0708 32.6974C89.1776 32.6708 89.2783 32.6393 89.3728 32.6028C89.4673 32.5641 89.562 32.5204 89.6564 32.4719V31.3228H88.8282C88.7809 31.3228 88.7423 31.3095 88.7124 31.2828C88.685 31.2559 88.6716 31.2234 88.6716 31.1844V30.7844H90.313V32.7847C90.1788 32.8793 90.0381 32.9617 89.8916 33.0319C89.7471 33.1023 89.5918 33.1617 89.4251 33.2102C89.2611 33.2561 89.0842 33.2902 88.8953 33.3121C88.7061 33.3361 88.501 33.3484 88.2798 33.3484C87.8918 33.3484 87.5359 33.2841 87.2128 33.1556C86.8892 33.0247 86.6108 32.8428 86.377 32.61C86.1432 32.375 85.9603 32.0937 85.8286 31.7663C85.6991 31.4391 85.6345 31.0791 85.6345 30.6863C85.6345 30.2887 85.698 29.9263 85.8247 29.5989C85.9542 29.2717 86.1369 28.9917 86.3734 28.7589C86.6121 28.5237 86.8994 28.3418 87.235 28.2133C87.5734 28.0848 87.9515 28.0205 88.3693 28.0205C88.5807 28.0205 88.777 28.0365 88.9588 28.0679C89.1403 28.097 89.3082 28.1405 89.4623 28.1989C89.6192 28.2546 89.7632 28.3237 89.8952 28.4061C90.0269 28.4861 90.1501 28.577 90.2645 28.6789L90.0594 28.9989C90.017 29.0642 89.9623 29.097 89.8952 29.097C89.8552 29.097 89.8119 29.0837 89.7646 29.057C89.7024 29.0231 89.6329 28.982 89.5557 28.9333C89.4785 28.8848 89.384 28.8389 89.272 28.7952C89.1628 28.7493 89.0322 28.7103 88.8805 28.6789C88.7313 28.6474 88.5533 28.6317 88.3469 28.6317C88.0458 28.6317 87.7736 28.6802 87.5299 28.777C87.286 28.8717 87.0784 29.0085 86.9068 29.1879C86.7351 29.365 86.6034 29.5807 86.5114 29.8354C86.4192 30.0874 86.3734 30.3711 86.3734 30.6863C86.3734 31.0159 86.4205 31.3106 86.515 31.57C86.6121 31.8271 86.7474 32.0452 86.9218 32.2247C87.0957 32.4041 87.3024 32.5409 87.5411 32.6356C87.7799 32.7302 88.0435 32.7774 88.3321 32.7774ZM94.7436 28.0789V28.6533H92.1766V30.3844H94.2546V30.9372H92.1766V32.7156H94.7436V33.2902H91.4491V28.0789H94.7436ZM100.772 30.6863C100.772 31.0767 100.709 31.4354 100.582 31.7628C100.455 32.0876 100.276 32.3676 100.045 32.6028C99.8132 32.838 99.5348 33.0212 99.209 33.1521C98.8856 33.2806 98.5275 33.3447 98.1344 33.3447C97.7414 33.3447 97.3833 33.2806 97.06 33.1521C96.7366 33.0212 96.4593 32.838 96.2279 32.6028C95.9966 32.3676 95.8175 32.0876 95.6907 31.7628C95.5637 31.4354 95.5005 31.0767 95.5005 30.6863C95.5005 30.2959 95.5637 29.9383 95.6907 29.6135C95.8175 29.2861 95.9966 29.0048 96.2279 28.7698C96.4593 28.5322 96.7366 28.3479 97.06 28.217C97.3833 28.0861 97.7414 28.0205 98.1344 28.0205C98.5275 28.0205 98.8856 28.0861 99.209 28.217C99.5348 28.3479 99.8132 28.5322 100.045 28.7698C100.276 29.0048 100.455 29.2861 100.582 29.6135C100.709 29.9383 100.772 30.2959 100.772 30.6863ZM100.03 30.6863C100.03 30.3663 99.9849 30.0789 99.8954 29.8244C99.8058 29.5698 99.679 29.3552 99.5148 29.1807C99.3508 29.0037 99.1517 28.8679 98.9179 28.7733C98.6841 28.6789 98.4229 28.6317 98.1344 28.6317C97.8485 28.6317 97.5884 28.6789 97.3546 28.7733C97.121 28.8679 96.9206 29.0037 96.7539 29.1807C96.5899 29.3552 96.4631 29.5698 96.3733 29.8244C96.2838 30.0789 96.2391 30.3663 96.2391 30.6863C96.2391 31.0063 96.2838 31.2937 96.3733 31.5482C96.4631 31.8004 96.5899 32.015 96.7539 32.1919C96.9206 32.3665 97.121 32.5009 97.3546 32.5956C97.5884 32.6878 97.8485 32.7337 98.1344 32.7337C98.4229 32.7337 98.6841 32.6878 98.9179 32.5956C99.1517 32.5009 99.3508 32.3665 99.5148 32.1919C99.679 32.015 99.8058 31.8004 99.8954 31.5482C99.9849 31.2937 100.03 31.0063 100.03 30.6863ZM104.52 28.8933C104.497 28.9298 104.474 28.9576 104.449 28.977C104.424 28.9941 104.392 29.0026 104.352 29.0026C104.31 29.0026 104.26 28.982 104.203 28.9407C104.148 28.8994 104.077 28.8546 103.99 28.8061C103.905 28.7552 103.802 28.7093 103.68 28.6679C103.561 28.6266 103.415 28.6061 103.244 28.6061C103.082 28.6061 102.939 28.6279 102.815 28.6717C102.69 28.7127 102.586 28.7698 102.501 28.8426C102.419 28.9152 102.357 29.0013 102.315 29.1007C102.273 29.1976 102.251 29.3031 102.251 29.417C102.251 29.5626 102.287 29.6839 102.359 29.7807C102.434 29.8754 102.531 29.9567 102.65 30.0244C102.772 30.0922 102.909 30.1517 103.061 30.2026C103.215 30.2511 103.372 30.302 103.531 30.3554C103.693 30.4087 103.849 30.4693 104.001 30.5372C104.155 30.6026 104.292 30.6863 104.411 30.7882C104.534 30.89 104.63 31.0148 104.702 31.1628C104.777 31.3106 104.814 31.4924 104.814 31.7082C104.814 31.9361 104.775 32.1506 104.695 32.3519C104.615 32.5506 104.499 32.7241 104.344 32.8719C104.193 33.0199 104.005 33.1361 103.781 33.2212C103.56 33.306 103.307 33.3484 103.024 33.3484C102.678 33.3484 102.362 33.2878 102.076 33.1665C101.792 33.0428 101.55 32.8769 101.349 32.6684L101.557 32.3337C101.577 32.3071 101.601 32.2852 101.628 32.2682C101.658 32.2489 101.69 32.2391 101.725 32.2391C101.778 32.2391 101.837 32.2671 101.904 32.3228C101.971 32.3761 102.055 32.4356 102.154 32.5009C102.256 32.5665 102.378 32.6271 102.52 32.6828C102.664 32.7361 102.84 32.7628 103.046 32.7628C103.218 32.7628 103.37 32.7399 103.505 32.6937C103.639 32.6478 103.752 32.5833 103.844 32.5009C103.939 32.4161 104.011 32.3156 104.061 32.1991C104.111 32.0828 104.135 31.9532 104.135 31.81C104.135 31.6524 104.098 31.5239 104.023 31.4244C103.951 31.3228 103.856 31.2378 103.736 31.17C103.617 31.102 103.48 31.045 103.326 30.9991C103.174 30.9506 103.017 30.902 102.856 30.8535C102.697 30.8026 102.54 30.7444 102.386 30.6791C102.234 30.6135 102.098 30.5287 101.979 30.4244C101.859 30.3202 101.763 30.1903 101.688 30.0354C101.616 29.8778 101.58 29.6839 101.58 29.4535C101.58 29.2693 101.616 29.0911 101.688 28.9189C101.763 28.7466 101.87 28.5938 102.009 28.4607C102.148 28.3274 102.32 28.2205 102.524 28.1405C102.73 28.0605 102.966 28.0205 103.232 28.0205C103.531 28.0205 103.803 28.0666 104.049 28.1589C104.296 28.2509 104.511 28.3842 104.695 28.5589L104.52 28.8933ZM106.554 31.3409V33.2902H105.834V28.0789H107.412C107.751 28.0789 108.044 28.1176 108.293 28.1952C108.544 28.2703 108.752 28.3783 108.916 28.5189C109.08 28.6594 109.202 28.8293 109.282 29.0279C109.364 29.2266 109.405 29.4485 109.405 29.6935C109.405 29.9359 109.361 30.1578 109.274 30.3591C109.187 30.5602 109.059 30.7335 108.89 30.8791C108.723 31.0244 108.515 31.1385 108.267 31.2209C108.018 31.3009 107.733 31.3409 107.412 31.3409H106.554ZM106.554 30.7809H107.412C107.619 30.7809 107.8 30.7541 107.957 30.7009C108.116 30.6476 108.249 30.5735 108.356 30.4791C108.463 30.382 108.544 30.2668 108.599 30.1335C108.654 30.0002 108.681 29.8535 108.681 29.6935C108.681 29.3613 108.575 29.102 108.364 28.9152C108.155 28.7285 107.838 28.6352 107.412 28.6352H106.554V30.7809ZM114.224 33.2902H113.664C113.6 33.2902 113.547 33.2743 113.508 33.2428C113.468 33.2113 113.438 33.1713 113.418 33.1228L112.918 31.8647H110.519L110.019 33.1228C110.002 33.1665 109.972 33.2052 109.93 33.2393C109.887 33.2732 109.835 33.2902 109.773 33.2902H109.213L111.351 28.0789H112.086L114.224 33.2902ZM110.721 31.3554H112.717L111.877 29.2352C111.823 29.1042 111.769 28.9407 111.717 28.7442C111.689 28.8437 111.662 28.9357 111.635 29.0207C111.61 29.1031 111.585 29.1757 111.56 29.2389L110.721 31.3554ZM118.064 28.0789V28.6717H116.337V33.2902H115.613V28.6717H113.878V28.0789H118.064ZM119.704 33.2902H118.98V28.0789H119.704V33.2902ZM125.554 33.2902H124.994C124.93 33.2902 124.877 33.2743 124.838 33.2428C124.798 33.2113 124.768 33.1713 124.748 33.1228L124.248 31.8647H121.849L121.349 33.1228C121.332 33.1665 121.302 33.2052 121.26 33.2393C121.217 33.2732 121.165 33.2902 121.103 33.2902H120.544L122.681 28.0789H123.416L125.554 33.2902ZM122.051 31.3554H124.047L123.207 29.2352C123.153 29.1042 123.099 28.9407 123.047 28.7442C123.019 28.8437 122.992 28.9357 122.965 29.0207C122.94 29.1031 122.915 29.1757 122.89 29.2389L122.051 31.3554ZM126.972 32.6974H129.286V33.2902H126.248V28.0789H126.972V32.6974ZM130.97 28.0789H131.571C131.636 28.0789 131.689 28.0946 131.731 28.1261C131.774 28.1576 131.802 28.1976 131.817 28.2461L132.922 31.8682C132.941 31.9337 132.959 32.0041 132.974 32.0791C132.991 32.1543 133.007 32.2332 133.022 32.3156C133.04 32.2332 133.057 32.1543 133.074 32.0791C133.092 32.0015 133.112 31.9313 133.134 31.8682L134.391 28.2461C134.406 28.2048 134.435 28.1674 134.477 28.1333C134.522 28.097 134.576 28.0789 134.638 28.0789H134.847C134.911 28.0789 134.964 28.0946 135.003 28.1261C135.046 28.1576 135.075 28.1976 135.093 28.2461L136.343 31.8682C136.388 31.9943 136.427 32.1385 136.462 32.3009C136.477 32.2209 136.491 32.1447 136.503 32.0719C136.516 31.9991 136.532 31.9313 136.552 31.8682L137.66 28.2461C137.672 28.2024 137.7 28.1637 137.742 28.1296C137.787 28.0957 137.84 28.0789 137.902 28.0789H138.466L136.798 33.2902H136.149L134.794 29.3152C134.767 29.2402 134.742 29.153 134.72 29.0535C134.707 29.102 134.695 29.1493 134.682 29.1952C134.672 29.2389 134.661 29.2789 134.649 29.3152L133.287 33.2902H132.638L130.97 28.0789ZM144.155 30.6863C144.155 31.0767 144.092 31.4354 143.964 31.7628C143.838 32.0876 143.659 32.3676 143.427 32.6028C143.196 32.838 142.917 33.0212 142.591 33.1521C142.268 33.2806 141.91 33.3447 141.517 33.3447C141.124 33.3447 140.766 33.2806 140.442 33.1521C140.119 33.0212 139.842 32.838 139.61 32.6028C139.379 32.3676 139.2 32.0876 139.073 31.7628C138.946 31.4354 138.883 31.0767 138.883 30.6863C138.883 30.2959 138.946 29.9383 139.073 29.6135C139.2 29.2861 139.379 29.0048 139.61 28.7698C139.842 28.5322 140.119 28.3479 140.442 28.217C140.766 28.0861 141.124 28.0205 141.517 28.0205C141.91 28.0205 142.268 28.0861 142.591 28.217C142.917 28.3479 143.196 28.5322 143.427 28.7698C143.659 29.0048 143.838 29.2861 143.964 29.6135C144.092 29.9383 144.155 30.2959 144.155 30.6863ZM143.412 30.6863C143.412 30.3663 143.367 30.0789 143.278 29.8244C143.188 29.5698 143.062 29.3552 142.897 29.1807C142.733 29.0037 142.534 28.8679 142.3 28.7733C142.067 28.6789 141.806 28.6317 141.517 28.6317C141.231 28.6317 140.971 28.6789 140.737 28.7733C140.503 28.8679 140.303 29.0037 140.137 29.1807C139.972 29.3552 139.846 29.5698 139.756 29.8244C139.667 30.0789 139.622 30.3663 139.622 30.6863C139.622 31.0063 139.667 31.2937 139.756 31.5482C139.846 31.8004 139.972 32.015 140.137 32.1919C140.303 32.3665 140.503 32.5009 140.737 32.5956C140.971 32.6878 141.231 32.7337 141.517 32.7337C141.806 32.7337 142.067 32.6878 142.3 32.5956C142.534 32.5009 142.733 32.3665 142.897 32.1919C143.062 32.015 143.188 31.8004 143.278 31.5482C143.367 31.2937 143.412 31.0063 143.412 30.6863ZM145.959 31.1154V33.2902H145.239V28.0789H146.749C147.088 28.0789 147.379 28.1128 147.626 28.1805C147.873 28.2461 148.075 28.3418 148.235 28.4679C148.395 28.5938 148.516 28.7466 148.592 28.9261C148.67 29.1031 148.708 29.302 148.708 29.5226C148.708 29.7068 148.678 29.8789 148.619 30.0389C148.559 30.1989 148.471 30.3431 148.358 30.4717C148.246 30.5978 148.107 30.7058 147.943 30.7954C147.781 30.885 147.598 30.953 147.391 30.9991C147.481 31.05 147.56 31.1239 147.631 31.2209L149.189 33.2902H148.547C148.415 33.2902 148.319 33.2406 148.256 33.1412L146.869 31.2791C146.827 31.2209 146.781 31.1796 146.731 31.1554C146.681 31.1287 146.606 31.1154 146.507 31.1154H145.959ZM145.959 30.6026H146.716C146.927 30.6026 147.112 30.5785 147.272 30.53C147.434 30.4791 147.568 30.4087 147.675 30.3191C147.784 30.2268 147.866 30.1178 147.92 29.9917C147.975 29.8658 148.004 29.7263 148.004 29.5735C148.004 29.2631 147.897 29.0293 147.686 28.8717C147.477 28.7138 147.164 28.6352 146.749 28.6352H145.959V30.6026ZM150.782 30.3626H151.054C151.149 30.3626 151.224 30.3517 151.278 30.3298C151.336 30.3058 151.389 30.2658 151.439 30.2098L153.218 28.2461C153.273 28.1855 153.326 28.1429 153.375 28.1189C153.428 28.092 153.494 28.0789 153.573 28.0789H154.188L152.151 30.3226C152.099 30.3785 152.049 30.4258 152.001 30.4644C151.957 30.5031 151.908 30.5348 151.857 30.5591C151.927 30.5807 151.987 30.6135 152.039 30.6572C152.092 30.7009 152.146 30.7554 152.204 30.8209L154.33 33.2902H153.703C153.656 33.2902 153.616 33.2865 153.584 33.2793C153.551 33.2721 153.522 33.2623 153.498 33.2502C153.475 33.238 153.455 33.2223 153.435 33.2028C153.415 33.1836 153.395 33.1628 153.375 33.1412L151.528 31.0719C151.501 31.0428 151.475 31.0185 151.45 30.9991C151.427 30.9772 151.4 30.9591 151.367 30.9444C151.338 30.93 151.302 30.9204 151.26 30.9154C151.219 30.9082 151.171 30.9044 151.11 30.9044H150.782V33.2902H150.061V28.0789H150.782V30.3626ZM157.826 28.8933C157.804 28.9298 157.78 28.9576 157.756 28.977C157.731 28.9941 157.698 29.0026 157.658 29.0026C157.616 29.0026 157.566 28.982 157.509 28.9407C157.454 28.8994 157.384 28.8546 157.296 28.8061C157.212 28.7552 157.108 28.7093 156.987 28.6679C156.867 28.6266 156.722 28.6061 156.55 28.6061C156.388 28.6061 156.246 28.6279 156.121 28.6717C155.996 28.7127 155.893 28.7698 155.808 28.8426C155.725 28.9152 155.664 29.0013 155.622 29.1007C155.579 29.1976 155.557 29.3031 155.557 29.417C155.557 29.5626 155.595 29.6839 155.666 29.7807C155.741 29.8754 155.837 29.9567 155.957 30.0244C156.08 30.0922 156.216 30.1517 156.368 30.2026C156.522 30.2511 156.678 30.302 156.837 30.3554C156.999 30.4087 157.156 30.4693 157.308 30.5372C157.461 30.6026 157.599 30.6863 157.718 30.7882C157.84 30.89 157.936 31.0148 158.01 31.1628C158.084 31.3106 158.121 31.4924 158.121 31.7082C158.121 31.9361 158.081 32.1506 158.001 32.3519C157.922 32.5506 157.806 32.7241 157.651 32.8719C157.499 33.0199 157.311 33.1361 157.087 33.2212C156.866 33.306 156.613 33.3484 156.331 33.3484C155.985 33.3484 155.669 33.2878 155.382 33.1665C155.099 33.0428 154.857 32.8769 154.655 32.6684L154.864 32.3337C154.884 32.3071 154.907 32.2852 154.934 32.2682C154.965 32.2489 154.998 32.2391 155.032 32.2391C155.084 32.2391 155.144 32.2671 155.211 32.3228C155.277 32.3761 155.362 32.4356 155.461 32.5009C155.563 32.5665 155.685 32.6271 155.827 32.6828C155.97 32.7361 156.146 32.7628 156.352 32.7628C156.524 32.7628 156.676 32.7399 156.811 32.6937C156.946 32.6478 157.06 32.5833 157.151 32.5009C157.246 32.4161 157.318 32.3156 157.367 32.1991C157.417 32.0828 157.441 31.9532 157.441 31.81C157.441 31.6524 157.404 31.5239 157.329 31.4244C157.258 31.3228 157.162 31.2378 157.042 31.17C156.923 31.102 156.787 31.045 156.632 30.9991C156.481 30.9506 156.323 30.902 156.163 30.8535C156.003 30.8026 155.847 30.7444 155.692 30.6791C155.54 30.6135 155.405 30.5287 155.286 30.4244C155.166 30.3202 155.069 30.1903 154.995 30.0354C154.923 29.8778 154.886 29.6839 154.886 29.4535C154.886 29.2693 154.923 29.0911 154.995 28.9189C155.069 28.7466 155.175 28.5938 155.315 28.4607C155.455 28.3274 155.626 28.2205 155.83 28.1405C156.036 28.0605 156.273 28.0205 156.539 28.0205C156.837 28.0205 157.11 28.0666 157.357 28.1589C157.602 28.2509 157.817 28.3842 158.001 28.5589L157.826 28.8933ZM159.861 31.3409V33.2902H159.14V28.0789H160.719C161.057 28.0789 161.35 28.1176 161.6 28.1952C161.851 28.2703 162.059 28.3783 162.223 28.5189C162.386 28.6594 162.508 28.8293 162.588 29.0279C162.67 29.2266 162.712 29.4485 162.712 29.6935C162.712 29.9359 162.667 30.1578 162.581 30.3591C162.494 30.5602 162.366 30.7335 162.197 30.8791C162.03 31.0244 161.822 31.1385 161.574 31.2209C161.324 31.3009 161.04 31.3409 160.719 31.3409H159.861ZM159.861 30.7809H160.719C160.925 30.7809 161.108 30.7541 161.264 30.7009C161.423 30.6476 161.555 30.5735 161.663 30.4791C161.769 30.382 161.851 30.2668 161.905 30.1335C161.96 30.0002 161.987 29.8535 161.987 29.6935C161.987 29.3613 161.881 29.102 161.67 28.9152C161.462 28.7285 161.145 28.6352 160.719 28.6352H159.861V30.7809ZM167.53 33.2902H166.971C166.906 33.2902 166.855 33.2743 166.814 33.2428C166.774 33.2113 166.744 33.1713 166.724 33.1228L166.225 31.8647H163.825L163.326 33.1228C163.309 33.1665 163.279 33.2052 163.236 33.2393C163.194 33.2732 163.142 33.2902 163.079 33.2902H162.52L164.658 28.0789H165.392L167.53 33.2902ZM164.028 31.3554H166.024L165.184 29.2352C165.13 29.1042 165.075 28.9407 165.024 28.7442C164.996 28.8437 164.969 28.9357 164.942 29.0207C164.916 29.1031 164.892 29.1757 164.867 29.2389L164.028 31.3554ZM171.832 32.2137C171.873 32.2137 171.908 32.2295 171.941 32.2609L172.224 32.5628C172.006 32.8102 171.739 33.0028 171.426 33.1412C171.115 33.2793 170.741 33.3484 170.3 33.3484C169.914 33.3484 169.565 33.2841 169.251 33.1556C168.938 33.0247 168.67 32.8428 168.449 32.61C168.228 32.375 168.056 32.0937 167.934 31.7663C167.812 31.4391 167.751 31.0791 167.751 30.6863C167.751 30.2935 167.816 29.9335 167.945 29.6063C168.077 29.2789 168.261 28.9976 168.498 28.7626C168.734 28.5274 169.016 28.3455 169.344 28.217C169.676 28.0861 170.04 28.0205 170.438 28.0205C170.831 28.0205 171.17 28.08 171.452 28.1989C171.738 28.3176 171.992 28.4789 172.214 28.6824L171.979 29.0061C171.962 29.0303 171.941 29.0511 171.919 29.0679C171.897 29.0826 171.864 29.0898 171.822 29.0898C171.789 29.0898 171.755 29.0789 171.718 29.057C171.682 29.0327 171.64 29.0037 171.59 28.9698C171.541 28.9357 171.482 28.8994 171.415 28.8607C171.348 28.8218 171.269 28.7855 171.177 28.7517C171.085 28.7176 170.977 28.6898 170.855 28.6679C170.733 28.6437 170.593 28.6317 170.433 28.6317C170.148 28.6317 169.885 28.6802 169.647 28.777C169.41 28.8717 169.206 29.0074 169.034 29.1844C168.864 29.3613 168.729 29.577 168.633 29.8317C168.538 30.0863 168.49 30.3711 168.49 30.6863C168.49 31.0113 168.538 31.3009 168.633 31.5554C168.729 31.81 168.859 32.026 169.024 32.2028C169.191 32.3774 169.387 32.5106 169.613 32.6028C169.839 32.695 170.083 32.7409 170.344 32.7409C170.504 32.7409 170.647 32.7324 170.774 32.7156C170.9 32.6961 171.017 32.6671 171.124 32.6284C171.234 32.5895 171.335 32.5409 171.426 32.4828C171.521 32.4223 171.616 32.3506 171.711 32.2682C171.752 32.2319 171.794 32.2137 171.832 32.2137ZM176.489 28.0789V28.6533H173.922V30.3844H176V30.9372H173.922V32.7156H176.489V33.2902H173.194V28.0789H176.489Z" fill="white"/>
<path fill-rule="evenodd" clip-rule="evenodd" d="M28.8426 28.6738L15.928 32.8699L3.01343 28.6738V32.8985L15.928 37.0662L28.8426 32.8985V28.6738ZM20.9502 33.9189C21.2275 33.9189 21.4524 33.6996 21.4524 33.4292C21.4524 33.1589 21.2275 32.9396 20.9502 32.9396C20.6728 32.9396 20.4479 33.1589 20.4479 33.4292C20.4479 33.6996 20.6728 33.9189 20.9502 33.9189ZM20.0175 33.8489C20.0175 34.1193 19.7927 34.3385 19.5153 34.3385C19.2379 34.3385 19.0131 34.1193 19.0131 33.8489C19.0131 33.5785 19.2379 33.3593 19.5153 33.3593C19.7927 33.3593 20.0175 33.5785 20.0175 33.8489ZM17.9367 34.8981C18.214 34.8981 18.4389 34.6789 18.4389 34.4085C18.4389 34.1381 18.214 33.9191 17.9367 33.9191C17.6593 33.9191 17.4345 34.1381 17.4345 34.4085C17.4345 34.6789 17.6593 34.8981 17.9367 34.8981ZM24.3671 31.513C24.0171 31.6255 23.8268 31.9932 23.9424 32.3344C24.0579 32.6754 24.4354 32.8607 24.7856 32.7481L27.2369 31.9604C27.5871 31.8478 27.7774 31.4799 27.6619 31.139C27.5463 30.7978 27.1687 30.6126 26.8186 30.7252L24.3671 31.513Z" fill="#ECB44B"/>
<path fill-rule="evenodd" clip-rule="evenodd" d="M28.8426 23.7783L15.928 27.9746L3.01343 23.7783V28.003L15.928 32.1707L28.8426 28.003V23.7783ZM20.9502 29.0236C21.2275 29.0236 21.4524 28.8043 21.4524 28.5339C21.4524 28.2636 21.2275 28.0445 20.9502 28.0445C20.6728 28.0445 20.4479 28.2636 20.4479 28.5339C20.4479 28.8043 20.6728 29.0236 20.9502 29.0236ZM20.0175 28.9534C20.0175 29.2238 19.7927 29.443 19.5153 29.443C19.2379 29.443 19.0131 29.2238 19.0131 28.9534C19.0131 28.683 19.2379 28.464 19.5153 28.464C19.7927 28.464 20.0175 28.683 20.0175 28.9534ZM17.9367 30.0028C18.214 30.0028 18.4389 29.7836 18.4389 29.5132C18.4389 29.2428 18.214 29.0236 17.9367 29.0236C17.6593 29.0236 17.4345 29.2428 17.4345 29.5132C17.4345 29.7836 17.6593 30.0028 17.9367 30.0028ZM24.4194 26.5652C24.0692 26.6776 23.8789 27.0454 23.9944 27.3864C24.11 27.7276 24.4876 27.913 24.8377 27.8004L27.2892 27.0124C27.6392 26.8999 27.8295 26.5322 27.7139 26.191C27.5984 25.85 27.2209 25.6647 26.8707 25.7772L24.4194 26.5652Z" fill="#57A0C7"/>
<path fill-rule="evenodd" clip-rule="evenodd" d="M28.8426 18.8828L15.928 23.0791L3.01343 18.8828V23.1075L15.928 27.2752L28.8426 23.1075V18.8828ZM20.9502 24.1279C21.2275 24.1279 21.4524 23.9088 21.4524 23.6385C21.4524 23.3681 21.2275 23.1488 20.9502 23.1488C20.6728 23.1488 20.4479 23.3681 20.4479 23.6385C20.4479 23.9088 20.6728 24.1279 20.9502 24.1279ZM20.0175 24.0581C20.0175 24.3285 19.7927 24.5478 19.5153 24.5478C19.2379 24.5478 19.0131 24.3285 19.0131 24.0581C19.0131 23.7878 19.2379 23.5685 19.5153 23.5685C19.7927 23.5685 20.0175 23.7878 20.0175 24.0581ZM17.9367 25.1071C18.214 25.1071 18.4389 24.8879 18.4389 24.6175C18.4389 24.3471 18.214 24.1281 17.9367 24.1281C17.6593 24.1281 17.4345 24.3471 17.4345 24.6175C17.4345 24.8879 17.6593 25.1071 17.9367 25.1071ZM24.4194 21.7564C24.0692 21.8688 23.8789 22.2367 23.9944 22.5777C24.11 22.9189 24.4876 23.1043 24.8377 22.9917L27.2892 22.2037C27.6392 22.0911 27.8295 21.7235 27.7139 21.3824C27.5984 21.0413 27.2209 20.856 26.8707 20.9685L24.4194 21.7564Z" fill="#888B8C"/>
</svg>
