<svg width="100" height="100" viewBox="0 0 100 100" fill="none" xmlns="http://www.w3.org/2000/svg">
<g clip-path="url(#clip0_114_41)">
<path d="M24.6611 8.28085L38.6611 15.4867C41.3254 16.8581 43 19.6033 43 22.5998V87.6061C43 93.5941 36.663 97.4595 31.3389 94.7192L17.3389 87.5133C14.6746 86.1419 13 83.3967 13 80.4002V15.3939C13 9.40593 19.337 5.54048 24.6611 8.28085Z" stroke="white" stroke-width="4"/>
<path d="M67 36V15C67 9.47715 62.5228 5 57 5H35" stroke="white" stroke-width="4" stroke-linecap="round"/>
<path d="M67 56V77C67 82.5228 62.5228 87 57 87H51" stroke="white" stroke-width="4" stroke-linecap="round"/>
<path d="M60 44C58.8954 44 58 44.8954 58 46C58 47.1046 58.8954 48 60 48L60 44ZM92.4142 47.4142C93.1953 46.6332 93.1953 45.3668 92.4142 44.5858L79.6863 31.8579C78.9052 31.0768 77.6389 31.0768 76.8579 31.8579C76.0768 32.6389 76.0768 33.9052 76.8579 34.6863L88.1716 46L76.8579 57.3137C76.0768 58.0948 76.0768 59.3611 76.8579 60.1421C77.6389 60.9232 78.9052 60.9232 79.6863 60.1421L92.4142 47.4142ZM60 48L91 48L91 44L60 44L60 48Z" fill="white"/>
</g>
<defs>
<clipPath id="clip0_114_41">
<rect width="100" height="100" fill="white"/>
</clipPath>
</defs>
</svg>
