<?xml version="1.0" encoding="UTF-8"?><svg id="Layer_3" xmlns="http://www.w3.org/2000/svg" viewBox="0 0 167.74 134.04"><defs><style>.cls-1{fill:#ecb44a;}.cls-1,.cls-2{stroke:#fff;stroke-miterlimit:10;}.cls-3,.cls-2{fill:#53a0c8;}</style></defs><polygon class="cls-1" points="147.91 101.12 137.87 97.44 137.84 76.31 148.05 73.12 147.91 101.12"/><polygon class="cls-1" points="145.77 39.98 82.49 21.64 82.3 13.33 145.58 31.67 145.77 39.98"/><polygon class="cls-1" points="82.87 44.14 117.65 31.98 117.84 23.67 83.06 35.83 82.87 44.14"/><polygon class="cls-2" points="145.86 31.89 159.17 27.51 94.63 9.28 82.42 13.29 106.95 20.48 71.55 32.42 43.72 24.2 30.5 27.51 94.54 48.3 109.23 43.55 83.17 35.85 117.84 23.67 145.86 31.89"/><polygon class="cls-1" points="148.05 95.31 137.59 91.48 94.54 104.47 94.54 114.05 148.05 95.31"/><polygon class="cls-1" points="41.31 95.21 51.5 91.48 92.47 103.85 92.33 113.27 41.31 95.21"/><polygon class="cls-1" points="41.72 95.5 51.77 91.81 51.79 45.86 41.58 42.67 41.72 95.5"/><polygon class="cls-1" points="159.17 61.95 146.21 57.78 105.67 69.13 105.67 78.7 159.17 61.95"/><polygon class="cls-1" points="159.17 61.95 146.21 57.78 105.67 69.13 105.67 78.7 159.17 61.95"/><polygon class="cls-1" points="60.12 70.92 71.97 66.46 94.63 72.9 94.63 81.8 60.12 70.92"/><polygon class="cls-2" points="159.17 39.56 159.17 27.51 94.63 47.87 94.66 51.58 94.63 51.58 94.63 81.72 94.63 88.41 94.63 93.76 147.69 77.03 147.69 95.01 94.54 113.58 94.63 125.6 159.17 103.04 159.17 101.9 159.17 90.99 159.17 73.41 159.17 69.63 159.17 61.36 106.12 78.1 106.12 56.3 159.17 39.56"/><polygon class="cls-3" points="19.9 51.29 19.9 54.97 26.92 57.21 26.92 69.45 29.75 70.36 29.75 54.43 19.9 51.29"/><polygon class="cls-3" points="10.65 58.72 10.65 60.66 9.45 60.28 9.45 58.33 10.65 58.72"/><polygon class="cls-3" points="15.29 55.28 15.29 57.23 14.09 56.84 14.09 54.9 15.29 55.28"/><polygon class="cls-3" points="19.74 57.9 19.74 60.95 17.85 60.35 17.85 57.29 19.74 57.9"/><polygon class="cls-3" points="22.37 88.09 22.37 93.01 19.33 92.04 19.33 87.12 22.37 88.09"/><polygon class="cls-3" points="17.37 97.17 22.01 98.81 22.1 95.62 17.47 93.98 17.37 97.17"/><polygon class="cls-3" points="16.59 88.09 16.59 93.01 15.07 92.04 15.07 87.12 16.59 88.09"/><polygon class="cls-3" points="14.69 49.42 14.69 52.48 12.8 51.87 12.8 48.82 14.69 49.42"/><polygon class="cls-3" points="16.23 33.63 16.23 36.69 14.34 36.09 14.34 33.03 16.23 33.63"/><polygon class="cls-3" points="20.85 36.63 20.85 40.23 18.63 39.52 18.63 35.92 20.85 36.63"/><polygon class="cls-3" points="22.79 27.82 22.79 30.23 21.3 29.76 21.3 27.34 22.79 27.82"/><polygon class="cls-3" points="18.08 25.1 18.08 27.51 16.59 27.04 16.59 24.62 18.08 25.1"/><polygon class="cls-3" points="24.65 30.4 24.65 33.94 22.18 33.15 22.18 35.13 24.65 35.92 24.65 40.79 28.61 42.05 28.61 31.66 24.65 30.4"/><polygon class="cls-3" points="22.99 105.05 22.99 107.28 21.1 106.84 21.1 104.61 22.99 105.05"/><polygon class="cls-3" points="10.28 92.09 10.28 95.14 8.39 94.54 8.39 91.48 10.28 92.09"/><polygon class="cls-3" points="13.74 99.53 13.74 102.58 11.85 101.98 11.85 98.92 13.74 99.53"/><polygon class="cls-3" points="22.75 104.51 22.75 107.56 20.86 106.96 20.86 103.9 22.75 104.51"/><polygon class="cls-3" points="14.69 65.24 14.69 68.29 12.8 67.69 12.8 64.63 14.69 65.24"/><polygon class="cls-3" points="21.91 57.7 21.91 63.27 18.79 62.28 18.79 66.45 24.82 68.37 24.82 58.63 21.91 57.7"/><polygon class="cls-2" points="60.06 83.01 82.71 90.09 82.71 109.53 41.6 95.04 41.6 43.19 94.37 59.9 94.29 47.87 30.15 27.51 30.15 29.71 30.11 29.7 30.11 31.11 36.54 33.16 36.54 43.56 30.11 41.5 30.11 53.25 38.04 55.78 38.04 74.13 30.11 71.6 30.11 90.32 36.45 92.16 36.45 102.27 30.11 100.43 30.11 101.9 30.11 103.04 94.29 125.6 94.2 113.58 94.29 93.76 94.29 93.7 94.29 81.72 60.06 70.95 60.06 83.01"/><polygon class="cls-3" points="29.03 90.94 29.03 99.62 23.67 97.91 23.67 89.23 29.03 90.94"/></svg>