<svg width="90" height="90" viewBox="0 0 90 90" fill="none" xmlns="http://www.w3.org/2000/svg">
<rect width="90" height="90" rx="10" fill="white"/>
<path d="M60.9897 62.3687L62.1272 61.2291L58.3022 57.4041V51.7291H56.6981V58.0749L60.9897 62.3687ZM31.6981 61.6666C30.7675 61.6666 29.9738 61.3388 29.3168 60.6832C28.6613 60.0277 28.3335 59.2339 28.3335 58.302V31.6978C28.3335 30.7673 28.6613 29.9735 29.3168 29.3166C29.9724 28.661 30.7661 28.3333 31.6981 28.3333H58.3022C59.2328 28.3333 60.0266 28.661 60.6835 29.3166C61.3391 29.9721 61.6668 30.7659 61.6668 31.6978V44.0937C61.3016 43.9687 60.9515 43.8666 60.6168 43.7874C60.2835 43.7096 59.9391 43.6319 59.5835 43.5541V31.6999C59.5835 31.3791 59.4502 31.0846 59.1835 30.8166C58.9154 30.5499 58.6217 30.4166 58.3022 30.4166H31.6981C31.3786 30.4166 31.0849 30.5499 30.8168 30.8166C30.5502 31.0846 30.4168 31.3784 30.4168 31.6978V58.302C30.4168 58.6214 30.5502 58.9152 30.8168 59.1832C31.0849 59.4499 31.3786 59.5832 31.6981 59.5832H43.5022C43.5522 59.9721 43.6168 60.3339 43.696 60.6687C43.7752 61.002 43.8772 61.3346 44.0022 61.6666H31.6981ZM30.4168 57.4999V59.5832V30.4166V43.5541V43.3978V57.4999ZM35.6252 53.8957H43.8752C43.9516 53.5388 44.0557 53.1937 44.1877 52.8603L44.6043 51.8103H35.6252V53.8957ZM35.6252 46.0416H49.3335C50.0182 45.561 50.6918 45.1534 51.3543 44.8187C52.0196 44.4853 52.7328 44.2242 53.4939 44.0353V43.9583H35.6252V46.0416ZM35.6252 38.1874H54.3752V36.1041H35.6252V38.1874ZM57.5002 66.0749C55.1793 66.0749 53.2099 65.2666 51.5918 63.6499C49.9738 62.0332 49.1654 60.0631 49.1668 57.7395C49.1668 55.4201 49.9752 53.4513 51.5918 51.8332C53.2085 50.2152 55.1779 49.4062 57.5002 49.4062C59.821 49.4062 61.7904 50.2152 63.4085 51.8332C65.0266 53.4513 65.8349 55.4201 65.8335 57.7395C65.8335 60.0617 65.0252 62.0312 63.4085 63.6478C61.7891 65.2645 59.8196 66.0749 57.5002 66.0749Z" fill="black"/>
</svg>
