<svg width="250" height="250" viewBox="0 0 250 250" fill="none" xmlns="http://www.w3.org/2000/svg">
<path d="M204.948 211.844L210.635 206.146L191.51 187.021V158.646H183.489V190.375L204.948 211.844ZM58.4894 208.333C53.8366 208.333 49.8679 206.695 46.5832 203.417C43.3054 200.139 41.6665 196.17 41.6665 191.51V58.4897C41.6665 53.8369 43.3054 49.8681 46.5832 46.5834C49.8609 43.3056 53.8297 41.6667 58.4894 41.6667H191.51C196.163 41.6667 200.132 43.3056 203.417 46.5834C206.694 49.8612 208.333 53.8299 208.333 58.4897V120.469C206.507 119.844 204.757 119.333 203.083 118.938C201.417 118.549 199.694 118.16 197.917 117.771V58.5001C197.917 56.8959 197.25 55.4237 195.917 54.0834C194.576 52.7501 193.107 52.0834 191.51 52.0834H58.4894C56.8922 52.0834 55.4234 52.7501 54.0832 54.0834C52.7498 55.4237 52.0832 56.8924 52.0832 58.4897V191.51C52.0832 193.108 52.7498 194.576 54.0832 195.917C55.4234 197.25 56.8922 197.917 58.4894 197.917H117.51C117.76 199.861 118.083 201.67 118.479 203.344C118.875 205.01 119.385 206.674 120.01 208.333H58.4894ZM52.0832 187.5V197.917V52.0834V117.771V116.99V187.5ZM78.1248 169.479H119.375C119.757 167.695 120.278 165.969 120.937 164.302L123.021 159.052H78.1248V169.479ZM78.1248 130.208H146.667C150.09 127.806 153.458 125.767 156.771 124.094C160.097 122.427 163.663 121.122 167.469 120.177V119.792H78.1248V130.208ZM78.1248 90.9376H171.875V80.5209H78.1248V90.9376ZM187.5 230.375C175.896 230.375 166.048 226.333 157.958 218.25C149.868 210.167 145.826 200.316 145.833 188.698C145.833 177.101 149.875 167.257 157.958 159.167C166.042 151.076 175.889 147.031 187.5 147.031C199.104 147.031 208.951 151.076 217.042 159.167C225.132 167.257 229.173 177.101 229.167 188.698C229.167 200.309 225.125 210.156 217.042 218.24C208.944 226.323 199.097 230.375 187.5 230.375Z" fill="black"/>
</svg>
