<?xml version="1.0" encoding="UTF-8"?><svg id="Layer_4" xmlns="http://www.w3.org/2000/svg" xmlns:xlink="http://www.w3.org/1999/xlink" viewBox="0 0 198.45 1169.62"><defs><style>.cls-1{stroke:#909090;}.cls-1,.cls-2,.cls-3{fill:none;}.cls-1,.cls-2,.cls-3,.cls-4{stroke-miterlimit:10;stroke-width:3px;}.cls-2{stroke:#53a0c8;}.cls-3,.cls-4{stroke:#ecb44a;}.cls-4{fill:#fff;}.cls-5{clip-path:url(#clippath);}</style><clipPath id="clippath"><path class="cls-3" d="M-.81,647.32l102.62-19.85,55.79,76.46s11.01,11.2,6.29,23.39c-4.72,12.19-47.17,104.56-47.17,104.56l-79.6-18.87-23.19-52.09s3.54-76.26-14.74-113.6Z"/></clipPath></defs><path class="cls-2" d="M-8.02,13.93s86.13,98.81,96.47,407.87l6.89,133.28s1.15,20.25,10.34,39.42c8.5,17.74,21.7,33.96,33.03,49.92,8.76,12.34,17.59,24.62,26.54,36.83,4.37,5.97,8.63,12.07,13.23,17.87,3.63,4.56,7.98,8.67,8.86,14.72,1.49,9.8-2.09,20.19-5.83,29.08-13.79,32.76-91.7,191.31-91.7,191.31,0,0-17.45,37.91-28.94,111.45s-68.89,111.91-68.89,111.91V13.93Z"/><path class="cls-2" d="M-22.75,13.93S63.38,112.74,73.72,421.8l6.89,133.28s1.15,20.23,10.33,39.4c7.39,15.42,18.66,29.55,28.47,43.47,8.97,12.74,17.94,25.48,27.15,38.05,4.31,5.88,8.5,11.96,13.23,17.51,4.07,4.78,8.81,9.36,11.35,15.2.48,1.1.88,2.24,1.15,3.42,2.35,10.2-1.61,21.52-5.51,30.79-13.79,32.76-91.7,191.31-91.7,191.31,0,0-17.45,37.91-28.94,111.45s-68.89,111.91-68.89,111.91V13.93Z"/><path class="cls-2" d="M-2.14,62.45s33.21,72.68,45.31,146.94l-46.45-5.29L-2.14,62.45Z"/><path class="cls-2" d="M-2.29,209.39l47.56,5.64s8.67,33.26,13.9,93.05c0,0-40.74,9.2-61.46-10.91v-87.77Z"/><path class="cls-2" d="M-2.29,304.63s21.9,19.89,61.95,8.05l2.54,26.5H-2.29v-34.55Z"/><polygon class="cls-2" points="-2.29 344.84 62.21 344.84 63.97 361.57 -2.29 389.65 -2.29 344.84"/><polygon class="cls-2" points="-2.29 394.82 63.97 367.25 68.44 437.91 35.58 440.2 -2.29 399.42 -2.29 394.82"/><polygon class="cls-2" points="-2.29 436.76 20.94 432.16 -2.29 406.88 -2.29 436.76"/><polygon class="cls-2" points="-2.29 442.5 24.1 436.76 33.08 445.95 68.21 443.6 71.18 501.1 -2.29 514.88 -2.29 442.5"/><path class="cls-2" d="M-2.29,519.48l73.47-13.21,3.78,57.13s2.22,29.62,25.37,56.62l-102.62,20.11v-120.64Z"/><polygon class="cls-2" points="114.86 839.01 78.1 830.84 68.44 856.69 100.33 868.96 114.86 839.01"/><path class="cls-2" d="M72.93,830.84l-42.96-9.77-12.18-28.72-20.06,7.47v94.79s26.96-1.72,48.21,5.17l27-68.94Z"/><path class="cls-2" d="M98.09,873.58l-19.72,40.41s-16.51-9.39-28.42-12.87l16.66-40.6,31.48,13.05Z"/><path class="cls-2" d="M76.3,918.21s-31.82-22.26-78.58-19.78v53.43l60.02,12.29s6.8-22.34,18.56-45.94Z"/><path class="cls-2" d="M56.57,968.04l-58.86-12.15v51.89l46.17,12.88s9.28-41.96,12.69-52.62Z"/><path class="cls-2" d="M43.04,1025.05l-45.33-12.48v75.83l24.47,9.09s11.84-20.14,16.76-48.49,4.09-23.96,4.09-23.96Z"/><path class="cls-2" d="M19.69,1102.04l-21.98-8.67v39.36s10.1-8.8,21.98-30.69Z"/><polygon class="cls-1" points="10.56 801.29 18.73 820.44 -2.29 829.37 -2.29 808.18 10.56 801.29"/><polygon class="cls-1" points="5.71 907.5 54.73 918.23 51.41 934.05 1.12 923.59 5.71 907.5"/><polygon class="cls-1" points="30.99 560.52 40.44 617.2 71.18 611.59 60.86 554.14 30.99 560.52"/><polygon class="cls-1" points="15.16 587.59 21.54 623.84 6.22 626.91 .35 591.42 15.16 587.59"/><polygon class="cls-1" points="27.41 532.69 29.71 549.03 44.78 545.97 41.71 530.14 27.41 532.69"/><polygon class="cls-1" points="-2.29 541.88 11.98 538.57 17.2 573.19 .35 576.61 -2.29 549.03 -2.29 541.88"/><polygon class="cls-1" points="38.65 473.2 41.46 489.29 57.29 486.48 54.22 470.14 38.65 473.2"/><polygon class="cls-1" points="29.46 477.54 32.01 492.1 -2.29 498.99 -2.29 483.67 29.46 477.54"/><polygon class="cls-1" points="-2.08 178.82 24.35 182.91 22.05 196.95 -2.46 193.63 -2.08 178.82"/><polygon class="cls-2" points="-2.29 794.65 17.2 788.01 5.97 761.71 5.46 751.76 -2.29 755.59 -2.29 794.65"/><path class="cls-2" d="M-2.29,751.76l9.74-5.11s1.91-41.36-9.74-86.81v91.91Z"/><g class="cls-5"><path class="cls-4" d="M57.63,842.73l-2.05-21.51,9.29-1-.52-9.19,12.37-.73,1.69,18.76,8.75-.81,1.26,11.88-30.8,2.59ZM58.5,823.6l1.54,16.26,25.44-2.14-.69-6.55-8.79.81-1.7-18.84-7.12.42.51,9.05-9.18.99Z"/><path class="cls-4" d="M24.59,798.41l-1.1-12.07,31.51-2.87,1.09,12.07-31.51,2.86ZM26.39,788.76l.61,6.75,26.19-2.38-.61-6.74-26.19,2.38Z"/><path class="cls-4" d="M8.97,828.28l-5.31-58.41,12.5-1.74,4.87,59.05-12.06,1.1ZM6.55,772.17l4.84,53.21,6.76-.62-4.42-53.59-7.17,1Z"/><path class="cls-4" d="M78.83,869.71l-2.33-21.7,12.79-2.16,1.85,22.34-12.31,1.52ZM79.43,850.22l1.78,16.5,7.07-.87-1.4-16.88-7.45,1.26Z"/><path class="cls-4" d="M28.46,835.82l-2.72-30.8,30.96-2.73,1.1,12.06-18.84,1.72.49,6.58,9.17-.99,1.53,12.38-21.69,1.79ZM28.64,807.45l2.25,25.49,16.27-1.34-.86-7.01-9.3,1.01-.89-11.95,18.79-1.71-.61-6.75-25.65,2.26Z"/><path class="cls-4" d="M92.76,706.85l-2.81-30.88,12.07-1.1,2.81,30.88-12.06,1.1ZM92.85,678.39l2.33,25.56,6.75-.62-2.32-25.56-6.75.61Z"/><path class="cls-4" d="M114.14,733.36l-5.99-65.84-28.22,2.56-1.1-12.07,40.29-3.66,3.42,37.62,19.44-1.77,1.95,21.47-12.07,1.1-.86-9.41-7.37.67,1.47,16.15,28.22-2.57,1.1,12.07-40.28,3.67ZM110.57,664.61l5.99,65.84,34.96-3.18-.61-6.75-28.22,2.57-1.95-21.47,12.69-1.16.86,9.41,6.74-.61-1.47-16.15-19.44,1.77-3.42-37.63-34.97,3.18.61,6.75,28.22-2.57Z"/><path class="cls-4" d="M62.83,690.6l-3.72-40.91,12.07-1.1,2.62,28.85,9.41-.85,1.1,12.06-21.47,1.95ZM62.01,652.11l3.24,35.59,16.15-1.47-.61-6.74-9.41.86-2.62-28.85-6.74.61Z"/><path class="cls-4" d="M45.73,711.13l-1.1-12.07,40.29-3.66,2.81,30.88-12.06,1.1-1.71-18.81-28.22,2.57ZM47.53,701.48l.61,6.75,28.22-2.57,1.71,18.81,6.75-.62-2.32-25.56-34.97,3.18Z"/><path class="cls-4" d="M58.56,747.9l-2.81-30.88,12.07-1.09,1.71,18.81,37.62-3.42,1.1,12.06-49.69,4.52ZM58.65,719.43l2.33,25.56,44.37-4.04-.61-6.75-37.63,3.43-1.71-18.82-6.75.61Z"/><path class="cls-4" d="M38.89,740.2l-1.95-21.48,12.07-1.1,1.95,21.47-12.07,1.1ZM39.84,721.15l1.47,16.15,6.75-.61-1.47-16.15-6.74.61Z"/><path class="cls-4" d="M118.42,780.39l-3.66-40.28,12.07-1.1,3.66,40.28-12.07,1.1ZM117.66,742.52l3.18,34.96,6.75-.61-3.18-34.96-6.75.61Z"/><path class="cls-4" d="M101.32,800.91l-1.71-18.81-18.81,1.71-1.1-12.07,18.81-1.71-.62-6.74-18.81,1.71-1.1-12.07,30.88-2.81,4.52,49.69-12.07,1.1ZM102.03,779.2l1.71,18.81,6.75-.62-4.04-44.37-25.56,2.33.61,6.75,18.81-1.71,1.1,12.06-18.81,1.71.61,6.75,18.82-1.71Z"/><path class="cls-4" d="M63.7,804.33l-4.52-49.69,12.07-1.1,3.42,37.63,18.81-1.71,1.1,12.06-30.88,2.81ZM62.08,757.06l4.04,44.37,25.56-2.33-.61-6.74-18.81,1.71-3.42-37.63-6.75.61Z"/><path class="cls-4" d="M.41,734.22l-1.1-12.07,30.88-2.81,1.1,12.07-30.88,2.81ZM2.22,724.57l.61,6.75,25.56-2.32-.61-6.75-25.56,2.32Z"/><path class="cls-4" d="M94.47,725.66l-1.1-12.07,12.07-1.1,1.1,12.07-12.07,1.1ZM96.28,716.01l.61,6.75,6.75-.61-.61-6.75-6.75.61Z"/><path class="cls-4" d="M40.6,759.02l-1.1-12.07,12.07-1.1,1.1,12.07-12.07,1.1ZM42.41,749.37l.61,6.74,6.75-.61-.61-6.74-6.74.61Z"/><path class="cls-4" d="M23.5,779.54l-3.67-40.29,12.06-1.09,2.57,28.21,18.81-1.71,1.1,12.07-30.88,2.81ZM22.74,741.67l3.18,34.97,25.56-2.32-.62-6.75-18.81,1.71-2.57-28.22-6.75.61Z"/><path class="cls-4" d="M134.67,750.46l-1.1-12.07,40.29-3.67,1.1,12.07-40.29,3.66ZM136.47,740.81l.62,6.74,34.97-3.18-.61-6.75-34.97,3.18Z"/><path class="cls-4" d="M24.59,798.41l-1.1-12.07,31.51-2.87,1.09,12.07-31.51,2.86ZM26.39,788.76l.61,6.75,26.19-2.38-.61-6.74-26.19,2.38Z"/><path class="cls-4" d="M2.98,762.44l-.85-9.4-9.41.86-1.1-12.07,21.47-1.95,1.95,21.47-12.07,1.09ZM4.54,750.13l.86,9.4,6.75-.61-1.47-16.15-16.15,1.47.61,6.75,9.4-.85Z"/><path class="cls-4" d="M161.04,729.26l-1.86-19.2-9.13,1.1-1.1-12.12,20.63-1.65,3.61,30.66-12.16,1.21ZM161.58,707.08l1.86,19.25,6.79-.67-2.99-25.41-15.38,1.23.61,6.69,9.11-1.1Z"/><path class="cls-4" d="M106.44,648.7l-1.1-12.07,12.07-1.1,1.1,12.06-12.06,1.1ZM108.25,639.05l.61,6.75,6.75-.62-.61-6.74-6.75.61Z"/><path class="cls-4" d="M-23.54,679.49l-1.1-12.07,39.66-3.61,1.09,12.07-39.66,3.61ZM-21.73,669.84l.61,6.75,34.34-3.12-.61-6.75-34.34,3.12Z"/><path class="cls-4" d="M-9,630.75l-1.1-12.06,40.29-3.67,1.1,12.07-40.29,3.66ZM-7.2,621.1l.61,6.74,34.97-3.18-.61-6.75-34.97,3.18Z"/><path class="cls-4" d="M-6.43,658.97l-1.96-21.49,30.55-2.43,1.48,11.73-9.34.69.71,9.55-21.45,1.95ZM-5.48,639.93l1.47,16.14,16.18-1.47-.72-9.6,9.19-.68-.81-6.4-25.32,2.02Z"/><path class="cls-4" d="M37.75,626.81l-3.67-40.29,12.07-1.1,2.57,28.22,18.81-1.71,1.1,12.07-30.88,2.81ZM36.98,588.94l3.18,34.97,25.56-2.33-.62-6.75-18.81,1.71-2.57-28.22-6.75.61Z"/><path class="cls-4" d="M30.33,646.14l-1.1-12.07,40.29-3.67,1.1,12.07-40.29,3.67ZM32.14,636.49l.61,6.75,34.97-3.18-.61-6.75-34.97,3.18Z"/><path class="cls-4" d="M22.64,665.81l-1.1-12.07,30.88-2.81,1.1,12.07-30.88,2.81ZM24.45,656.16l.61,6.75,25.56-2.33-.61-6.75-25.56,2.33Z"/><path class="cls-4" d="M24.35,684.62l-1.1-12.07,30.88-2.81,1.95,21.47-12.06,1.1-.86-9.41-18.81,1.71ZM26.16,674.97l.61,6.75,18.81-1.71.86,9.41,6.74-.62-1.47-16.15-25.56,2.33Z"/><path class="cls-4" d="M-1.36,714.78l-2.75-30.25,21.47-1.95,1.1,12.07-9.4.85,1.65,18.19-12.07,1.1ZM-1.2,686.94l2.27,24.93,6.75-.61-1.65-18.19,9.4-.85-.61-6.75-16.15,1.47Z"/><path class="cls-4" d="M17.51,713.69l-1.1-12.07,9.4-.85-.85-9.41,12.06-1.1,1.95,21.47-21.47,1.95ZM19.32,704.04l.61,6.75,16.15-1.47-1.47-16.15-6.74.62.85,9.41-9.4.85Z"/><path class="cls-4" d="M134.67,750.46l-1.1-12.07,40.29-3.67,1.1,12.07-40.29,3.66ZM136.47,740.81l.62,6.74,34.97-3.18-.61-6.75-34.97,3.18Z"/><path class="cls-4" d="M54.87,606.33l-2.33-21.7,12.79-2.16,1.85,22.34-12.31,1.52ZM55.46,586.85l1.77,16.5,7.07-.87-1.4-16.88-7.44,1.26Z"/><path class="cls-4" d="M8.97,828.28l-5.31-58.41,12.5-1.74,4.87,59.05-12.06,1.1ZM6.55,772.17l4.84,53.21,6.76-.62-4.42-53.59-7.17,1Z"/><path class="cls-4" d="M57.63,842.73l-2.05-21.51,9.29-1-.52-9.19,12.37-.73,1.69,18.76,8.75-.81,1.26,11.88-30.8,2.59ZM58.5,823.6l1.54,16.26,25.44-2.14-.69-6.55-8.79.81-1.7-18.84-7.12.42.51,9.05-9.18.99Z"/><path class="cls-4" d="M177.34,699.06l-2.04-21.51,9.29-1-.52-9.19,12.37-.72,1.7,18.76,8.75-.8,1.26,11.88-30.8,2.58ZM178.2,679.93l1.55,16.25,25.44-2.13-.69-6.55-8.79.81-1.7-18.85-7.13.42.51,9.06-9.18,1Z"/><path class="cls-4" d="M28.46,835.82l-2.72-30.8,30.96-2.73,1.1,12.06-18.84,1.72.49,6.58,9.17-.99,1.53,12.38-21.69,1.79ZM28.64,807.45l2.25,25.49,16.27-1.34-.86-7.01-9.3,1.01-.89-11.95,18.79-1.71-.61-6.75-25.65,2.26Z"/><path class="cls-4" d="M144.29,654.74l-1.1-12.07,31.51-2.87,1.09,12.07-31.51,2.87ZM146.1,645.09l.61,6.75,26.19-2.38-.61-6.74-26.19,2.38Z"/><path class="cls-4" d="M128.68,684.61l-5.31-58.41,12.5-1.74,4.87,59.05-12.06,1.1ZM126.25,628.5l4.84,53.21,6.76-.61-4.42-53.6-7.18,1Z"/><path class="cls-4" d="M73.94,604.23l-2.01-22.1,12.07-1.1,2.01,22.1-12.07,1.1ZM74.83,584.55l1.53,16.78,6.75-.61-1.53-16.78-6.75.61Z"/><path class="cls-4" d="M120.13,799.2l-1.1-12.07,39.66-3.61,1.1,12.07-39.66,3.61ZM121.94,789.55l.61,6.75,34.34-3.12-.61-6.75-34.34,3.12Z"/><path class="cls-4" d="M134.67,750.46l-1.1-12.07,40.29-3.67,1.1,12.07-40.29,3.66ZM136.47,740.81l.62,6.74,34.97-3.18-.61-6.75-34.97,3.18Z"/><path class="cls-4" d="M137.24,778.67l-1.95-21.49,30.55-2.43,1.48,11.73-9.33.69.71,9.55-21.45,1.95ZM138.19,759.64l1.47,16.14,16.18-1.47-.72-9.6,9.19-.68-.81-6.4-25.32,2.02Z"/><path class="cls-4" d="M95.34,839.39l-1.71-18.81-9.41.85-1.1-12.06,49.69-4.52,2.81,30.91-11.92.88-1.85-18.62-16.18,1.47.51,6.89,9.53-1.02,1.1,12.09-21.47,1.95ZM96.05,817.68l1.71,18.81,16.15-1.47-.61-6.72-9.57,1.03-.91-12.26,21.44-1.95,1.86,18.66,6.61-.49-2.32-25.54-44.37,4.04.61,6.75,9.41-.86Z"/><path class="cls-4" d="M174,765.85l-1.1-12.07,40.29-3.67,1.1,12.07-40.29,3.67ZM175.81,756.2l.62,6.75,34.97-3.18-.62-6.75-34.96,3.18Z"/><path class="cls-4" d="M198.54,726.04l-2.33-21.7,12.79-2.16,1.85,22.34-12.31,1.52ZM199.13,706.55l1.78,16.5,7.07-.87-1.4-16.88-7.45,1.26Z"/><path class="cls-4" d="M97.9,867.61l-2.01-22.1,12.07-1.1,2.01,22.1-12.07,1.1ZM98.8,847.93l1.53,16.78,6.75-.61-1.53-16.78-6.75.61Z"/><path class="cls-4" d="M95.32,630.74l-2.81-30.88,12.07-1.1,1.71,18.82,9.41-.86,1.1,12.06-21.47,1.95ZM95.42,602.28l2.33,25.56,16.15-1.47-.61-6.75-9.41.86-1.71-18.81-6.74.61Z"/><path class="cls-4" d="M148.17,692.15l-2.72-30.8,30.96-2.73,1.1,12.06-18.84,1.71.49,6.58,9.17-.99,1.53,12.37-21.7,1.79ZM148.35,663.78l2.25,25.49,16.27-1.34-.86-7.01-9.3,1.01-.88-11.95,18.79-1.71-.61-6.75-25.65,2.26Z"/><path class="cls-4" d="M78.22,651.27l-3.66-40.29,12.07-1.1,2.57,28.22,9.41-.85,1.1,12.06-21.47,1.96ZM77.46,613.4l3.18,34.97,16.15-1.47-.61-6.75-9.41.86-2.57-28.22-6.75.61Z"/><path class="cls-4" d="M-23.54,679.49l-1.1-12.07,39.66-3.61,1.09,12.07-39.66,3.61ZM-21.73,669.84l.61,6.75,34.34-3.12-.61-6.75-34.34,3.12Z"/><path class="cls-4" d="M-6.43,658.97l-1.96-21.49,30.55-2.43,1.48,11.73-9.34.69.71,9.55-21.45,1.95ZM-5.48,639.93l1.47,16.14,16.18-1.47-.72-9.6,9.19-.68-.81-6.4-25.32,2.02Z"/><path class="cls-4" d="M37.75,626.81l-3.67-40.29,12.07-1.1,2.57,28.22,18.81-1.71,1.1,12.07-30.88,2.81ZM36.98,588.94l3.18,34.97,25.56-2.33-.62-6.75-18.81,1.71-2.57-28.22-6.75.61Z"/><path class="cls-4" d="M30.33,646.14l-1.1-12.07,40.29-3.67,1.1,12.07-40.29,3.67ZM32.14,636.49l.61,6.75,34.97-3.18-.61-6.75-34.97,3.18Z"/><path class="cls-4" d="M54.87,606.33l-2.33-21.7,12.79-2.16,1.85,22.34-12.31,1.52ZM55.46,586.85l1.77,16.5,7.07-.87-1.4-16.88-7.44,1.26Z"/><path class="cls-4" d="M73.94,604.23l-2.01-22.1,12.07-1.1,2.01,22.1-12.07,1.1ZM74.83,584.55l1.53,16.78,6.75-.61-1.53-16.78-6.75.61Z"/><path class="cls-4" d="M181.41,746.52l-3.66-40.28,12.07-1.1,2.57,28.22,18.81-1.71,1.1,12.07-30.88,2.81ZM180.65,708.65l3.18,34.97,25.56-2.32-.62-6.75-18.81,1.71-2.57-28.22-6.75.61Z"/></g><path class="cls-3" d="M-.81,647.32l102.62-19.85,55.79,76.46s11.01,11.2,6.29,23.39c-4.72,12.19-47.17,104.56-47.17,104.56l-79.6-18.87-23.19-52.09s3.54-76.26-14.74-113.6Z"/></svg>