<svg width="90" height="90" viewBox="0 0 90 90" fill="none" xmlns="http://www.w3.org/2000/svg">
<rect width="90" height="90" rx="10" fill="white"/>
<path d="M30.4165 59.1042V57.0208H33.7811V40.5104C33.7811 37.7882 34.6422 35.3944 36.3644 33.3292C38.0894 31.2653 40.2734 29.9792 42.9165 29.4708V28.3333C42.9165 27.7542 43.1186 27.2625 43.5228 26.8583C43.9269 26.4528 44.4179 26.25 44.9957 26.25C45.5721 26.25 46.0644 26.4528 46.4728 26.8583C46.8797 27.2625 47.0832 27.7542 47.0832 28.3333V29.4708C49.7276 29.9792 51.9109 31.266 53.6332 33.3313C55.3554 35.3979 56.2165 37.7917 56.2165 40.5125V57.0188H59.5832V59.1021L30.4165 59.1042ZM44.9936 64.5521C44.0658 64.5521 43.2741 64.2222 42.6186 63.5625C41.963 62.9042 41.6353 62.1125 41.6353 61.1875H48.3644C48.3644 62.1181 48.0346 62.9118 47.3748 63.5688C46.7137 64.2243 45.92 64.5521 44.9936 64.5521ZM35.8644 57.0188H54.1353V40.5125C54.1353 37.9806 53.2457 35.825 51.4665 34.0458C49.6887 32.2681 47.5332 31.3792 44.9998 31.3792C42.4665 31.3792 40.3109 32.2681 38.5332 34.0458C36.7554 35.825 35.8665 37.9806 35.8665 40.5125L35.8644 57.0188Z" fill="black"/>
</svg>
