<svg width="250" height="250" viewBox="0 0 250 250" fill="none" xmlns="http://www.w3.org/2000/svg">
<path d="M52.0835 195.521V185.104H68.9064V102.552C68.9064 88.941 73.212 76.9722 81.8231 66.6458C90.4481 56.3264 101.368 49.8958 114.583 47.3542V41.6667C114.583 38.7708 115.594 36.3125 117.615 34.2917C119.636 32.2639 122.09 31.25 124.979 31.25C127.861 31.25 130.323 32.2639 132.365 34.2917C134.399 36.3125 135.417 38.7708 135.417 41.6667V47.3542C148.639 49.8958 159.556 56.3299 168.167 66.6563C176.778 76.9896 181.083 88.9583 181.083 102.562V185.094H197.917V195.51L52.0835 195.521ZM124.969 222.76C120.33 222.76 116.372 221.111 113.094 217.812C109.816 214.521 108.177 210.563 108.177 205.938H141.823C141.823 210.59 140.174 214.559 136.875 217.844C133.57 221.122 129.601 222.76 124.969 222.76ZM79.3231 185.094H170.677V102.562C170.677 89.9028 166.229 79.125 157.333 70.2292C148.445 61.3403 137.667 56.8958 125 56.8958C112.333 56.8958 101.556 61.3403 92.6668 70.2292C83.7779 79.125 79.3335 89.9028 79.3335 102.562L79.3231 185.094Z" fill="black"/>
</svg>
