<svg width="250" height="250" viewBox="0 0 250 250" fill="none" xmlns="http://www.w3.org/2000/svg">
<path fill-rule="evenodd" clip-rule="evenodd" d="M166.666 93.7502C166.666 104.801 162.276 115.399 154.462 123.213C146.648 131.027 136.05 135.417 125 135.417C113.949 135.417 103.351 131.027 95.5369 123.213C87.7229 115.399 83.333 104.801 83.333 93.7502C83.333 82.6995 87.7229 72.1014 95.5369 64.2874C103.351 56.4734 113.949 52.0835 125 52.0835C136.05 52.0835 146.648 56.4734 154.462 64.2874C162.276 72.1014 166.666 82.6995 166.666 93.7502ZM145.833 93.7502C145.833 99.2755 143.638 104.575 139.731 108.482C135.824 112.389 130.525 114.583 125 114.583C119.474 114.583 114.175 112.389 110.268 108.482C106.361 104.575 104.166 99.2755 104.166 93.7502C104.166 88.2248 106.361 82.9258 110.268 79.0188C114.175 75.1118 119.474 72.9168 125 72.9168C130.525 72.9168 135.824 75.1118 139.731 79.0188C143.638 82.9258 145.833 88.2248 145.833 93.7502Z" fill="black"/>
<path fill-rule="evenodd" clip-rule="evenodd" d="M125 10.4167C61.7186 10.4167 10.4165 61.7188 10.4165 125C10.4165 188.281 61.7186 239.583 125 239.583C188.281 239.583 239.583 188.281 239.583 125C239.583 61.7188 188.281 10.4167 125 10.4167ZM31.2498 125C31.2498 146.771 38.6769 166.813 51.1248 182.729C59.8668 171.249 71.1446 161.945 84.0773 155.545C97.0099 149.145 111.247 145.821 125.677 145.833C139.92 145.82 153.978 149.058 166.78 155.3C179.583 161.542 190.791 170.624 199.552 181.854C208.577 170.017 214.654 156.2 217.28 141.548C219.906 126.896 219.004 111.829 214.651 97.5937C210.297 83.3588 202.617 70.3652 192.244 59.688C181.872 49.0108 169.107 40.957 155.004 36.1929C140.901 31.4288 125.866 30.0915 111.144 32.2915C96.4219 34.4915 82.4352 40.1656 70.3412 48.8444C58.2472 57.5232 48.3937 68.9571 41.596 82.2C34.7982 95.443 31.2517 110.114 31.2498 125ZM125 218.75C103.478 218.782 82.6068 211.379 65.9165 197.792C72.6345 188.174 81.5763 180.322 91.981 174.903C102.386 169.484 113.946 166.658 125.677 166.667C137.262 166.657 148.682 169.412 158.989 174.702C169.295 179.993 178.191 187.665 184.937 197.083C168.118 211.112 146.902 218.781 125 218.75Z" fill="black"/>
</svg>
