<svg width="90" height="90" viewBox="0 0 90 90" fill="none" xmlns="http://www.w3.org/2000/svg">
<rect width="90" height="90" rx="10" fill="white"/>
<path fill-rule="evenodd" clip-rule="evenodd" d="M53.3337 38.7498C53.3337 40.96 52.4557 43.0796 50.8929 44.6424C49.3301 46.2052 47.2105 47.0832 45.0003 47.0832C42.7902 47.0832 40.6706 46.2052 39.1078 44.6424C37.545 43.0796 36.667 40.96 36.667 38.7498C36.667 36.5397 37.545 34.4201 39.1078 32.8573C40.6706 31.2945 42.7902 30.4165 45.0003 30.4165C47.2105 30.4165 49.3301 31.2945 50.8929 32.8573C52.4557 34.4201 53.3337 36.5397 53.3337 38.7498ZM49.167 38.7498C49.167 39.8549 48.728 40.9147 47.9466 41.6961C47.1652 42.4775 46.1054 42.9165 45.0003 42.9165C43.8953 42.9165 42.8355 42.4775 42.054 41.6961C41.2726 40.9147 40.8337 39.8549 40.8337 38.7498C40.8337 37.6448 41.2726 36.585 42.054 35.8036C42.8355 35.0222 43.8953 34.5832 45.0003 34.5832C46.1054 34.5832 47.1652 35.0222 47.9466 35.8036C48.728 36.585 49.167 37.6448 49.167 38.7498Z" fill="black"/>
<path fill-rule="evenodd" clip-rule="evenodd" d="M45.0002 22.0833C32.3439 22.0833 22.0835 32.3437 22.0835 44.9999C22.0835 57.6562 32.3439 67.9166 45.0002 67.9166C57.6564 67.9166 67.9168 57.6562 67.9168 44.9999C67.9168 32.3437 57.6564 22.0833 45.0002 22.0833ZM26.2502 44.9999C26.2502 49.3541 27.7356 53.3624 30.2252 56.5458C31.9736 54.2497 34.2291 52.389 36.8156 51.1089C39.4022 49.8288 42.2496 49.1641 45.1356 49.1666C47.9842 49.1639 50.7958 49.8114 53.3563 51.0599C55.9167 52.3083 58.1584 54.1248 59.9106 56.3708C61.7157 54.0033 62.9311 51.24 63.4562 48.3095C63.9813 45.379 63.8011 42.3656 62.9304 39.5186C62.0597 36.6717 60.5235 34.0729 58.4491 31.9375C56.3746 29.8021 53.8215 28.1913 51.001 27.2385C48.1804 26.2857 45.1735 26.0182 42.229 26.4582C39.2846 26.8982 36.4872 28.033 34.0684 29.7688C31.6496 31.5045 29.6789 33.7913 28.3194 36.4399C26.9598 39.0885 26.2505 42.0228 26.2502 44.9999ZM45.0002 63.7499C40.6959 63.7564 36.5216 62.2756 33.1835 59.5583C34.5271 57.6348 36.3155 56.0643 38.3964 54.9805C40.4773 53.8967 42.7893 53.3316 45.1356 53.3333C47.4526 53.3314 49.7366 53.8824 51.7979 54.9404C53.8593 55.9984 55.6384 57.533 56.9877 59.4166C53.6237 62.2222 49.3805 63.7561 45.0002 63.7499Z" fill="black"/>
</svg>
