<?xml version="1.0" encoding="UTF-8"?><svg id="Layer_4" xmlns="http://www.w3.org/2000/svg" xmlns:xlink="http://www.w3.org/1999/xlink" viewBox="0 0 198.45 1169.62"><defs><style>.cls-1{stroke:#909090;}.cls-1,.cls-2,.cls-3{fill:none;}.cls-1,.cls-2,.cls-3,.cls-4{stroke-miterlimit:10;stroke-width:3px;}.cls-2{stroke:#53a0c8;}.cls-3,.cls-4{stroke:#ecb44a;}.cls-4{fill:#fff;}.cls-5{clip-path:url(#clippath);}</style><clipPath id="clippath"><path class="cls-3" d="M200.36,647.32l-102.62-19.85-55.79,76.46s-11.01,11.2-6.29,23.39c4.72,12.19,47.17,104.56,47.17,104.56l79.6-18.87,23.19-52.09s-3.54-76.26,14.74-113.6Z"/></clipPath></defs><path class="cls-2" d="M207.57,13.93s-86.13,98.81-96.47,407.87l-6.89,133.28s-1.15,20.25-10.34,39.42c-8.5,17.74-21.7,33.96-33.03,49.92-8.76,12.34-17.59,24.62-26.54,36.83-4.37,5.97-8.63,12.07-13.23,17.87-3.63,4.56-7.98,8.67-8.86,14.72-1.49,9.8,2.09,20.19,5.83,29.08,13.79,32.76,91.7,191.31,91.7,191.31,0,0,17.45,37.91,28.94,111.45s68.89,111.91,68.89,111.91V13.93Z"/><path class="cls-2" d="M222.29,13.93s-86.13,98.81-96.47,407.87l-6.89,133.28s-1.15,20.23-10.33,39.4c-7.39,15.42-18.66,29.55-28.47,43.47-8.97,12.74-17.94,25.48-27.15,38.05-4.31,5.88-8.5,11.96-13.23,17.51-4.07,4.78-8.81,9.36-11.35,15.2-.48,1.1-.88,2.24-1.15,3.42-2.35,10.2,1.61,21.52,5.51,30.79,13.79,32.76,91.7,191.31,91.7,191.31,0,0,17.45,37.91,28.94,111.45s68.89,111.91,68.89,111.91V13.93Z"/><path class="cls-2" d="M201.69,62.45s-33.21,72.68-45.31,146.94l46.45-5.29-1.14-141.65Z"/><path class="cls-2" d="M201.83,209.39l-47.56,5.64s-8.67,33.26-13.9,93.05c0,0,40.74,9.2,61.46-10.91v-87.77Z"/><path class="cls-2" d="M201.83,304.63s-21.9,19.89-61.95,8.05l-2.54,26.5h64.5v-34.55Z"/><polygon class="cls-2" points="201.83 344.84 137.33 344.84 135.58 361.57 201.83 389.65 201.83 344.84"/><polygon class="cls-2" points="201.83 394.82 135.58 367.25 131.1 437.91 163.96 440.2 201.83 399.42 201.83 394.82"/><polygon class="cls-2" points="201.83 436.76 178.61 432.16 201.83 406.88 201.83 436.76"/><polygon class="cls-2" points="201.83 442.5 175.45 436.76 166.47 445.95 131.33 443.6 128.36 501.1 201.83 514.88 201.83 442.5"/><path class="cls-2" d="M201.83,519.48l-73.47-13.21-3.78,57.13s-2.22,29.62-25.37,56.62l102.62,20.11v-120.64Z"/><polygon class="cls-2" points="84.68 839.01 121.45 830.84 131.1 856.69 99.21 868.96 84.68 839.01"/><path class="cls-2" d="M126.62,830.84l42.96-9.77,12.18-28.72,20.06,7.47v94.79s-26.96-1.72-48.21,5.17l-27-68.94Z"/><path class="cls-2" d="M101.46,873.58l19.72,40.41s16.51-9.39,28.42-12.87l-16.66-40.6-31.48,13.05Z"/><path class="cls-2" d="M123.25,918.21s31.82-22.26,78.58-19.78v53.43l-60.02,12.29s-6.8-22.34-18.56-45.94Z"/><path class="cls-2" d="M142.98,968.04l58.86-12.15v51.89l-46.17,12.88s-9.28-41.96-12.69-52.62Z"/><path class="cls-2" d="M156.5,1025.05l45.33-12.48v75.83l-24.47,9.09s-11.84-20.14-16.76-48.49-4.09-23.96-4.09-23.96Z"/><path class="cls-2" d="M179.85,1102.04l21.98-8.67v39.36s-10.1-8.8-21.98-30.69Z"/><polygon class="cls-1" points="188.98 801.29 180.81 820.44 201.83 829.37 201.83 808.18 188.98 801.29"/><polygon class="cls-1" points="193.83 907.5 144.81 918.23 148.13 934.05 198.43 923.59 193.83 907.5"/><polygon class="cls-1" points="168.55 560.52 159.11 617.2 128.36 611.59 138.68 554.14 168.55 560.52"/><polygon class="cls-1" points="184.38 587.59 178 623.84 193.32 626.91 199.19 591.42 184.38 587.59"/><polygon class="cls-1" points="172.13 532.69 169.83 549.03 154.77 545.97 157.83 530.14 172.13 532.69"/><polygon class="cls-1" points="201.83 541.88 187.57 538.57 182.34 573.19 199.19 576.61 201.83 549.03 201.83 541.88"/><polygon class="cls-1" points="160.89 473.2 158.09 489.29 142.26 486.48 145.32 470.14 160.89 473.2"/><polygon class="cls-1" points="170.09 477.54 167.53 492.1 201.83 498.99 201.83 483.67 170.09 477.54"/><polygon class="cls-1" points="201.63 178.82 175.19 182.91 177.49 196.95 202 193.63 201.63 178.82"/><polygon class="cls-2" points="201.83 794.65 182.34 788.01 193.58 761.71 194.09 751.76 201.83 755.59 201.83 794.65"/><path class="cls-2" d="M201.83,751.76l-9.74-5.11s-1.91-41.36,9.74-86.81v91.91Z"/><g class="cls-5"><path class="cls-4" d="M141.91,842.73l2.05-21.51-9.29-1,.52-9.19-12.37-.73-1.69,18.76-8.75-.81-1.26,11.88,30.8,2.59ZM141.05,823.6l-1.54,16.26-25.44-2.14.69-6.55,8.79.81,1.7-18.84,7.12.42-.51,9.05,9.18.99Z"/><path class="cls-4" d="M174.96,798.41l1.1-12.07-31.51-2.87-1.09,12.07,31.51,2.86ZM173.15,788.76l-.61,6.75-26.19-2.38.61-6.74,26.19,2.38Z"/><path class="cls-4" d="M190.57,828.28l5.31-58.41-12.5-1.74-4.87,59.05,12.06,1.1ZM193,772.17l-4.84,53.21-6.76-.62,4.42-53.59,7.17,1Z"/><path class="cls-4" d="M120.71,869.71l2.33-21.7-12.79-2.16-1.85,22.34,12.31,1.52ZM120.12,850.22l-1.78,16.5-7.07-.87,1.4-16.88,7.45,1.26Z"/><path class="cls-4" d="M171.08,835.82l2.72-30.8-30.96-2.73-1.1,12.06,18.84,1.72-.49,6.58-9.17-.99-1.53,12.38,21.69,1.79ZM170.9,807.45l-2.25,25.49-16.27-1.34.86-7.01,9.3,1.01.89-11.95-18.79-1.71.61-6.75,25.65,2.26Z"/><path class="cls-4" d="M106.78,706.85l2.81-30.88-12.07-1.1-2.81,30.88,12.06,1.1ZM106.69,678.39l-2.33,25.56-6.75-.62,2.32-25.56,6.75.61Z"/><path class="cls-4" d="M85.4,733.36l5.99-65.84,28.22,2.56,1.1-12.07-40.29-3.66-3.42,37.62-19.44-1.77-1.95,21.47,12.07,1.1.86-9.41,7.37.67-1.47,16.15-28.22-2.57-1.1,12.07,40.28,3.67ZM88.97,664.61l-5.99,65.84-34.96-3.18.61-6.75,28.22,2.57,1.95-21.47-12.69-1.16-.86,9.41-6.74-.61,1.47-16.15,19.44,1.77,3.42-37.63,34.97,3.18-.61,6.75-28.22-2.57Z"/><path class="cls-4" d="M136.71,690.6l3.72-40.91-12.07-1.1-2.62,28.85-9.41-.85-1.1,12.06,21.47,1.95ZM137.53,652.11l-3.24,35.59-16.15-1.47.61-6.74,9.41.86,2.62-28.85,6.74.61Z"/><path class="cls-4" d="M153.81,711.13l1.1-12.07-40.29-3.66-2.81,30.88,12.06,1.1,1.71-18.81,28.22,2.57ZM152.01,701.48l-.61,6.75-28.22-2.57-1.71,18.81-6.75-.62,2.32-25.56,34.97,3.18Z"/><path class="cls-4" d="M140.98,747.9l2.81-30.88-12.07-1.09-1.71,18.81-37.62-3.42-1.1,12.06,49.69,4.52ZM140.89,719.43l-2.33,25.56-44.37-4.04.61-6.75,37.63,3.43,1.71-18.82,6.75.61Z"/><path class="cls-4" d="M160.65,740.2l1.95-21.48-12.07-1.1-1.95,21.47,12.07,1.1ZM159.7,721.15l-1.47,16.15-6.75-.61,1.47-16.15,6.74.61Z"/><path class="cls-4" d="M81.12,780.39l3.66-40.28-12.07-1.1-3.66,40.28,12.07,1.1ZM81.88,742.52l-3.18,34.96-6.75-.61,3.18-34.96,6.75.61Z"/><path class="cls-4" d="M98.22,800.91l1.71-18.81,18.81,1.71,1.1-12.07-18.81-1.71.62-6.74,18.81,1.71,1.1-12.07-30.88-2.81-4.52,49.69,12.07,1.1ZM97.51,779.2l-1.71,18.81-6.75-.62,4.04-44.37,25.56,2.33-.61,6.75-18.81-1.71-1.1,12.06,18.81,1.71-.61,6.75-18.82-1.71Z"/><path class="cls-4" d="M135.85,804.33l4.52-49.69-12.07-1.1-3.42,37.63-18.81-1.71-1.1,12.06,30.88,2.81ZM137.47,757.06l-4.04,44.37-25.56-2.33.61-6.74,18.81,1.71,3.42-37.63,6.75.61Z"/><path class="cls-4" d="M199.13,734.22l1.1-12.07-30.88-2.81-1.1,12.07,30.88,2.81ZM197.33,724.57l-.61,6.75-25.56-2.32.61-6.75,25.56,2.32Z"/><path class="cls-4" d="M105.07,725.66l1.1-12.07-12.07-1.1-1.1,12.07,12.07,1.1ZM103.27,716.01l-.61,6.75-6.75-.61.61-6.75,6.75.61Z"/><path class="cls-4" d="M158.94,759.02l1.1-12.07-12.07-1.1-1.1,12.07,12.07,1.1ZM157.13,749.37l-.61,6.74-6.75-.61.61-6.74,6.74.61Z"/><path class="cls-4" d="M176.04,779.54l3.67-40.29-12.06-1.09-2.57,28.21-18.81-1.71-1.1,12.07,30.88,2.81ZM176.8,741.67l-3.18,34.97-25.56-2.32.62-6.75,18.81,1.71,2.57-28.22,6.75.61Z"/><path class="cls-4" d="M64.88,750.46l1.1-12.07-40.29-3.67-1.1,12.07,40.29,3.66ZM63.07,740.81l-.62,6.74-34.97-3.18.61-6.75,34.97,3.18Z"/><path class="cls-4" d="M174.96,798.41l1.1-12.07-31.51-2.87-1.09,12.07,31.51,2.86ZM173.15,788.76l-.61,6.75-26.19-2.38.61-6.74,26.19,2.38Z"/><path class="cls-4" d="M196.56,762.44l.85-9.4,9.41.86,1.1-12.07-21.47-1.95-1.95,21.47,12.07,1.09ZM195,750.13l-.86,9.4-6.75-.61,1.47-16.15,16.15,1.47-.61,6.75-9.4-.85Z"/><path class="cls-4" d="M38.5,729.26l1.86-19.2,9.13,1.1,1.1-12.12-20.63-1.65-3.61,30.66,12.16,1.21ZM37.96,707.08l-1.86,19.25-6.79-.67,2.99-25.41,15.38,1.23-.61,6.69-9.11-1.1Z"/><path class="cls-4" d="M93.1,648.7l1.1-12.07-12.07-1.1-1.1,12.06,12.06,1.1ZM91.3,639.05l-.61,6.75-6.75-.62.61-6.74,6.75.61Z"/><path class="cls-4" d="M223.08,679.49l1.1-12.07-39.66-3.61-1.09,12.07,39.66,3.61ZM221.27,669.84l-.61,6.75-34.34-3.12.61-6.75,34.34,3.12Z"/><path class="cls-4" d="M208.55,630.75l1.1-12.06-40.29-3.67-1.1,12.07,40.29,3.66ZM206.74,621.1l-.61,6.74-34.97-3.18.61-6.75,34.97,3.18Z"/><path class="cls-4" d="M205.98,658.97l1.96-21.49-30.55-2.43-1.48,11.73,9.34.69-.71,9.55,21.45,1.95ZM205.03,639.93l-1.47,16.14-16.18-1.47.72-9.6-9.19-.68.81-6.4,25.32,2.02Z"/><path class="cls-4" d="M161.8,626.81l3.67-40.29-12.07-1.1-2.57,28.22-18.81-1.71-1.1,12.07,30.88,2.81ZM162.56,588.94l-3.18,34.97-25.56-2.33.62-6.75,18.81,1.71,2.57-28.22,6.75.61Z"/><path class="cls-4" d="M169.21,646.14l1.1-12.07-40.29-3.67-1.1,12.07,40.29,3.67ZM167.4,636.49l-.61,6.75-34.97-3.18.61-6.75,34.97,3.18Z"/><path class="cls-4" d="M176.9,665.81l1.1-12.07-30.88-2.81-1.1,12.07,30.88,2.81ZM175.1,656.16l-.61,6.75-25.56-2.33.61-6.75,25.56,2.33Z"/><path class="cls-4" d="M175.19,684.62l1.1-12.07-30.88-2.81-1.95,21.47,12.06,1.1.86-9.41,18.81,1.71ZM173.39,674.97l-.61,6.75-18.81-1.71-.86,9.41-6.74-.62,1.47-16.15,25.56,2.33Z"/><path class="cls-4" d="M200.9,714.78l2.75-30.25-21.47-1.95-1.1,12.07,9.4.85-1.65,18.19,12.07,1.1ZM200.75,686.94l-2.27,24.93-6.75-.61,1.65-18.19-9.4-.85.61-6.75,16.15,1.47Z"/><path class="cls-4" d="M182.03,713.69l1.1-12.07-9.4-.85.85-9.41-12.06-1.1-1.95,21.47,21.47,1.95ZM180.22,704.04l-.61,6.75-16.15-1.47,1.47-16.15,6.74.62-.85,9.41,9.4.85Z"/><path class="cls-4" d="M64.88,750.46l1.1-12.07-40.29-3.67-1.1,12.07,40.29,3.66ZM63.07,740.81l-.62,6.74-34.97-3.18.61-6.75,34.97,3.18Z"/><path class="cls-4" d="M144.67,606.33l2.33-21.7-12.79-2.16-1.85,22.34,12.31,1.52ZM144.08,586.85l-1.77,16.5-7.07-.87,1.4-16.88,7.44,1.26Z"/><path class="cls-4" d="M190.57,828.28l5.31-58.41-12.5-1.74-4.87,59.05,12.06,1.1ZM193,772.17l-4.84,53.21-6.76-.62,4.42-53.59,7.17,1Z"/><path class="cls-4" d="M141.91,842.73l2.05-21.51-9.29-1,.52-9.19-12.37-.73-1.69,18.76-8.75-.81-1.26,11.88,30.8,2.59ZM141.05,823.6l-1.54,16.26-25.44-2.14.69-6.55,8.79.81,1.7-18.84,7.12.42-.51,9.05,9.18.99Z"/><path class="cls-4" d="M22.2,699.06l2.04-21.51-9.29-1,.52-9.19-12.37-.72-1.7,18.76-8.75-.8-1.26,11.88,30.8,2.58ZM21.34,679.93l-1.55,16.25-25.44-2.13.69-6.55,8.79.81,1.7-18.85,7.13.42-.51,9.06,9.18,1Z"/><path class="cls-4" d="M171.08,835.82l2.72-30.8-30.96-2.73-1.1,12.06,18.84,1.72-.49,6.58-9.17-.99-1.53,12.38,21.69,1.79ZM170.9,807.45l-2.25,25.49-16.27-1.34.86-7.01,9.3,1.01.89-11.95-18.79-1.71.61-6.75,25.65,2.26Z"/><path class="cls-4" d="M55.25,654.74l1.1-12.07-31.51-2.87-1.09,12.07,31.51,2.87ZM53.44,645.09l-.61,6.75-26.19-2.38.61-6.74,26.19,2.38Z"/><path class="cls-4" d="M70.87,684.61l5.31-58.41-12.5-1.74-4.87,59.05,12.06,1.1ZM73.29,628.5l-4.84,53.21-6.76-.61,4.42-53.6,7.18,1Z"/><path class="cls-4" d="M125.6,604.23l2.01-22.1-12.07-1.1-2.01,22.1,12.07,1.1ZM124.71,584.55l-1.53,16.78-6.75-.61,1.53-16.78,6.75.61Z"/><path class="cls-4" d="M79.41,799.2l1.1-12.07-39.66-3.61-1.1,12.07,39.66,3.61ZM77.6,789.55l-.61,6.75-34.34-3.12.61-6.75,34.34,3.12Z"/><path class="cls-4" d="M64.88,750.46l1.1-12.07-40.29-3.67-1.1,12.07,40.29,3.66ZM63.07,740.81l-.62,6.74-34.97-3.18.61-6.75,34.97,3.18Z"/><path class="cls-4" d="M62.31,778.67l1.95-21.49-30.55-2.43-1.48,11.73,9.33.69-.71,9.55,21.45,1.95ZM61.36,759.64l-1.47,16.14-16.18-1.47.72-9.6-9.19-.68.81-6.4,25.32,2.02Z"/><path class="cls-4" d="M104.2,839.39l1.71-18.81,9.41.85,1.1-12.06-49.69-4.52-2.81,30.91,11.92.88,1.85-18.62,16.18,1.47-.51,6.89-9.53-1.02-1.1,12.09,21.47,1.95ZM103.5,817.68l-1.71,18.81-16.15-1.47.61-6.72,9.57,1.03.91-12.26-21.44-1.95-1.86,18.66-6.61-.49,2.32-25.54,44.37,4.04-.61,6.75-9.41-.86Z"/><path class="cls-4" d="M25.54,765.85l1.1-12.07-40.29-3.67-1.1,12.07,40.29,3.67ZM23.74,756.2l-.62,6.75-34.97-3.18.62-6.75,34.96,3.18Z"/><path class="cls-4" d="M1,726.04l2.33-21.7-12.79-2.16-1.85,22.34,12.31,1.52ZM.41,706.55l-1.78,16.5-7.07-.87,1.4-16.88,7.45,1.26Z"/><path class="cls-4" d="M101.64,867.61l2.01-22.1-12.07-1.1-2.01,22.1,12.07,1.1ZM100.75,847.93l-1.53,16.78-6.75-.61,1.53-16.78,6.75.61Z"/><path class="cls-4" d="M104.22,630.74l2.81-30.88-12.07-1.1-1.71,18.82-9.41-.86-1.1,12.06,21.47,1.95ZM104.13,602.28l-2.33,25.56-16.15-1.47.61-6.75,9.41.86,1.71-18.81,6.74.61Z"/><path class="cls-4" d="M51.37,692.15l2.72-30.8-30.96-2.73-1.1,12.06,18.84,1.71-.49,6.58-9.17-.99-1.53,12.37,21.7,1.79ZM51.2,663.78l-2.25,25.49-16.27-1.34.86-7.01,9.3,1.01.88-11.95-18.79-1.71.61-6.75,25.65,2.26Z"/><path class="cls-4" d="M121.32,651.27l3.66-40.29-12.07-1.1-2.57,28.22-9.41-.85-1.1,12.06,21.47,1.96ZM122.08,613.4l-3.18,34.97-16.15-1.47.61-6.75,9.41.86,2.57-28.22,6.75.61Z"/><path class="cls-4" d="M223.08,679.49l1.1-12.07-39.66-3.61-1.09,12.07,39.66,3.61ZM221.27,669.84l-.61,6.75-34.34-3.12.61-6.75,34.34,3.12Z"/><path class="cls-4" d="M205.98,658.97l1.96-21.49-30.55-2.43-1.48,11.73,9.34.69-.71,9.55,21.45,1.95ZM205.03,639.93l-1.47,16.14-16.18-1.47.72-9.6-9.19-.68.81-6.4,25.32,2.02Z"/><path class="cls-4" d="M161.8,626.81l3.67-40.29-12.07-1.1-2.57,28.22-18.81-1.71-1.1,12.07,30.88,2.81ZM162.56,588.94l-3.18,34.97-25.56-2.33.62-6.75,18.81,1.71,2.57-28.22,6.75.61Z"/><path class="cls-4" d="M169.21,646.14l1.1-12.07-40.29-3.67-1.1,12.07,40.29,3.67ZM167.4,636.49l-.61,6.75-34.97-3.18.61-6.75,34.97,3.18Z"/><path class="cls-4" d="M144.67,606.33l2.33-21.7-12.79-2.16-1.85,22.34,12.31,1.52ZM144.08,586.85l-1.77,16.5-7.07-.87,1.4-16.88,7.44,1.26Z"/><path class="cls-4" d="M125.6,604.23l2.01-22.1-12.07-1.1-2.01,22.1,12.07,1.1ZM124.71,584.55l-1.53,16.78-6.75-.61,1.53-16.78,6.75.61Z"/><path class="cls-4" d="M18.13,746.52l3.66-40.28-12.07-1.1-2.57,28.22-18.81-1.71-1.1,12.07,30.88,2.81ZM18.89,708.65l-3.18,34.97-25.56-2.32.62-6.75,18.81,1.71,2.57-28.22,6.75.61Z"/></g><path class="cls-3" d="M200.36,647.32l-102.62-19.85-55.79,76.46s-11.01,11.2-6.29,23.39c4.72,12.19,47.17,104.56,47.17,104.56l79.6-18.87,23.19-52.09s-3.54-76.26,14.74-113.6Z"/></svg>