<svg width="44" height="44" viewBox="0 0 44 44" fill="none" xmlns="http://www.w3.org/2000/svg">
<g clip-path="url(#clip0_304_572)">
<path d="M20.553 27.1123C21.9021 27.1123 23.1484 26.7011 24.1892 26.0072L27.9539 29.772C28.2496 30.0675 28.7379 30.0675 29.0461 29.772L29.7785 29.0396C30.074 28.7441 30.074 28.2558 29.7785 27.9474L26.0009 24.1955C26.6946 23.1548 27.1059 21.9084 27.1059 20.5593C27.1059 16.9488 24.1635 14.0063 20.553 14.0063C16.9424 14.0063 14 16.9488 14 20.5593C14 24.1697 16.9296 27.1123 20.553 27.1123ZM20.553 16.5761C22.7501 16.5761 24.5361 18.3621 24.5361 20.5593C24.5361 22.7565 22.7501 24.5425 20.553 24.5425C18.3558 24.5425 16.5698 22.7565 16.5698 20.5593C16.5698 18.3621 18.3558 16.5761 20.553 16.5761Z" fill="#1A315C"/>
</g>
<defs>
<clipPath id="clip0_304_572">
<rect width="16" height="16" fill="white" transform="translate(14 14)"/>
</clipPath>
</defs>
</svg>
