<svg width="90" height="90" viewBox="0 0 90 90" fill="none" xmlns="http://www.w3.org/2000/svg">
<rect width="90" height="90" rx="10" fill="white"/>
<path d="M51.25 51.25H66.875V54.375H51.25V51.25ZM51.25 57.5H60.625V60.625H51.25V57.5Z" fill="black"/>
<path d="M66.8749 46.5624V44.9999C66.8707 40.4621 65.4541 36.0382 62.8216 32.342C60.1892 28.6458 56.4715 25.8607 52.1844 24.3731C47.8973 22.8856 43.2535 22.7694 38.8975 24.0407C34.5414 25.312 30.6891 27.9077 27.8751 31.4677C25.0611 35.0276 23.425 39.3752 23.1939 43.9071C22.9628 48.439 24.1481 52.9305 26.5853 56.7582C29.0225 60.586 32.5908 63.5601 36.795 65.268C40.9991 66.9758 45.6306 67.3327 50.0468 66.289L49.328 63.2484C47.9096 63.5826 46.4572 63.7509 44.9999 63.7499C44.703 63.7499 44.414 63.7202 44.1202 63.7077C40.7298 58.6251 38.8791 52.6715 38.7905 46.5624H66.8749ZM63.6858 43.4374H54.3358C54.162 37.6803 52.6797 32.0382 50.0015 26.939C53.6929 27.9652 56.9824 30.0957 59.4286 33.0446C61.8748 35.9935 63.3593 39.6199 63.6858 43.4374ZM45.8796 26.2921C49.27 31.3748 51.1207 37.3284 51.2093 43.4374H38.7905C38.8791 37.3284 40.7298 31.3748 44.1202 26.2921C44.414 26.2812 44.703 26.2499 44.9999 26.2499C45.2968 26.2499 45.5858 26.2796 45.8796 26.2921ZM39.9983 26.939C37.3201 32.0382 35.8378 37.6803 35.664 43.4374H26.3155C26.6419 39.6203 28.1274 35.9942 30.5731 33.0453C33.0187 30.0964 36.3074 27.9658 39.9983 26.939ZM39.9983 63.0609C36.3074 62.0341 33.0187 59.9034 30.5731 56.9545C28.1274 54.0057 26.6419 50.3796 26.3155 46.5624H35.664C35.8378 52.3196 37.3201 57.9616 39.9983 63.0609Z" fill="black"/>
</svg>
