<svg width="250" height="250" viewBox="0 0 250 250" fill="none" xmlns="http://www.w3.org/2000/svg">
<path d="M156.25 156.25H234.375V171.875H156.25V156.25ZM156.25 187.5H203.125V203.125H156.25V187.5Z" fill="black"/>
<path d="M234.375 132.812V125C234.354 102.311 227.271 80.1911 214.109 61.7101C200.946 43.2292 182.358 29.3036 160.922 21.8659C139.487 14.4282 116.268 13.8473 94.4878 20.2038C72.7074 26.5603 53.4458 39.539 39.3759 57.3387C25.3059 75.1383 17.1256 96.8763 15.97 119.536C14.8144 142.195 20.7409 164.653 32.927 183.791C45.1132 202.93 62.9546 217.801 83.9753 226.34C104.996 234.879 128.154 236.664 150.234 231.445L146.641 216.242C139.549 217.913 132.286 218.755 125 218.75C123.516 218.75 122.07 218.602 120.602 218.539C103.649 193.126 94.3958 163.358 93.9531 132.812H234.375ZM218.43 117.187H171.68C170.81 88.4016 163.399 60.1913 150.008 34.6952C168.465 39.8264 184.912 50.4785 197.143 65.2232C209.375 79.9678 216.797 98.0998 218.43 117.187ZM129.398 31.4609C146.351 56.8742 155.604 86.642 156.047 117.187H93.9531C94.3958 86.642 103.649 56.8742 120.602 31.4609C122.07 31.4062 123.516 31.2499 125 31.2499C126.484 31.2499 127.93 31.3984 129.398 31.4609ZM99.9922 34.6952C86.6008 60.1913 79.1895 88.4016 78.3203 117.187H31.5781C33.2098 98.1018 40.6377 79.9712 52.8658 65.2268C65.0939 50.4824 81.5377 39.8291 99.9922 34.6952ZM99.9922 215.305C81.5377 210.171 65.0939 199.517 52.8658 184.773C40.6377 170.029 33.2098 151.898 31.5781 132.812H78.3203C79.1895 161.598 86.6008 189.809 99.9922 215.305Z" fill="black"/>
</svg>
