<svg width="90" height="90" viewBox="0 0 90 90" fill="none" xmlns="http://www.w3.org/2000/svg">
<rect width="90" height="90" rx="10" fill="white"/>
<g clip-path="url(#clip0_530_2912)">
<path fill-rule="evenodd" clip-rule="evenodd" d="M30.4165 38.7501C30.4165 34.8823 31.953 31.173 34.6879 28.4381C37.4228 25.7032 41.1321 24.1667 44.9998 24.1667C48.8676 24.1667 52.5769 25.7032 55.3118 28.4381C58.0467 31.173 59.5832 34.8823 59.5832 38.7501V40.9063C63.1165 41.4126 65.8332 44.4522 65.8332 48.1251V48.6459C65.8329 49.5493 65.6519 50.4435 65.3007 51.2758C64.9496 52.1081 64.4354 52.8618 63.7885 53.4923C63.1417 54.1229 62.3751 54.6176 61.5341 54.9474C60.6931 55.2772 59.7946 55.4354 58.8915 55.4126C57.3498 59.8293 53.429 62.8063 49.1978 63.5605C48.2186 63.9188 47.0603 63.7501 46.0415 63.7501C45.2127 63.7501 44.4178 63.4208 43.8318 62.8348C43.2457 62.2487 42.9165 61.4539 42.9165 60.6251C42.9165 59.7963 43.2457 59.0014 43.8318 58.4154C44.4178 57.8293 45.2127 57.5001 46.0415 57.5001H48.1248C48.614 57.5 49.0964 57.6147 49.5332 57.8351C49.9699 58.0555 50.3488 58.3753 50.6394 58.7688C53.3394 57.4834 55.4165 54.7688 55.4165 51.2501V38.7501C55.4165 35.9874 54.319 33.3379 52.3655 31.3844C50.412 29.4309 47.7625 28.3334 44.9998 28.3334C42.2372 28.3334 39.5876 29.4309 37.6341 31.3844C35.6806 33.3379 34.5832 35.9874 34.5832 38.7501V51.7709C34.5832 52.7379 34.1991 53.6652 33.5153 54.3489C32.8316 55.0326 31.9043 55.4167 30.9373 55.4167C29.1416 55.4167 27.4194 54.7034 26.1496 53.4336C24.8799 52.1638 24.1665 50.4417 24.1665 48.6459V48.1251C24.1661 46.3714 24.7977 44.6762 25.9456 43.3504C27.0935 42.0246 28.6808 41.1569 30.4165 40.9063V38.7501ZM30.4165 45.1772C29.807 45.3927 29.2793 45.7919 28.9061 46.3199C28.533 46.8479 28.3328 47.4786 28.3332 48.1251V48.6459C28.3332 49.9063 29.229 50.9584 30.4165 51.198V45.1772ZM59.5832 45.1772V51.198C60.7707 50.9563 61.6665 49.9063 61.6665 48.6459V48.1251C61.6668 47.4786 61.4667 46.8479 61.0935 46.3199C60.7204 45.7919 60.1927 45.3927 59.5832 45.1772Z" fill="black"/>
</g>
<defs>
<clipPath id="clip0_530_2912">
<rect width="50" height="50" fill="white" transform="translate(20 20)"/>
</clipPath>
</defs>
</svg>
