<svg width="219" height="219" viewBox="0 0 219 219" fill="none" xmlns="http://www.w3.org/2000/svg">
<path d="M109.937 183.96C68.7646 183.96 35.4766 150.672 35.4766 109.5C35.4766 68.328 68.7646 35.04 109.937 35.04C151.109 35.04 184.397 68.328 184.397 109.5C184.397 150.672 150.671 183.96 109.937 183.96ZM109.937 43.8C73.5826 43.8 44.2366 73.146 44.2366 109.5C44.2366 145.854 73.5826 175.2 109.937 175.2C146.291 175.2 175.637 145.854 175.637 109.5C175.637 73.146 145.853 43.8 109.937 43.8Z" fill="black"/>
<path d="M67.0129 163.374L59.1289 159.87C61.3189 154.614 68.3269 151.548 75.7729 148.044C83.2189 144.54 92.4169 140.598 92.4169 135.78V129.21C89.7889 127.02 85.4089 122.202 84.5329 115.194C82.3429 113.004 78.8389 109.062 78.8389 103.806C78.8389 100.74 80.1529 98.1121 81.0289 96.3601C80.1529 92.8561 79.2769 86.2861 79.2769 81.0301C79.2769 63.9481 91.1029 52.5601 109.937 52.5601C115.193 52.5601 121.763 53.8741 125.267 57.8161C133.589 59.5681 140.597 69.2041 140.597 81.0301C140.597 88.4761 139.283 94.6081 138.407 97.6741C139.283 98.9881 140.159 101.178 140.159 103.806C140.159 109.5 137.093 113.442 134.465 115.194C133.589 122.202 129.647 126.582 127.019 128.772V135.78C127.019 139.722 134.903 142.788 141.911 145.416C150.233 148.482 158.993 151.986 162.059 158.994L153.737 162.06C152.423 158.556 145.415 155.928 138.845 153.738C129.209 150.234 118.259 146.292 118.259 136.218V124.83L120.449 123.516C120.449 123.516 125.705 120.012 125.705 113.004V109.938L128.333 108.624C128.771 108.624 130.961 107.31 130.961 103.806C130.961 102.93 130.085 101.616 129.647 101.178L127.895 99.4261L128.771 97.2361C128.771 97.2361 130.961 90.2281 130.961 81.4681C130.961 73.1461 126.143 67.0141 122.201 67.0141H119.573L118.259 64.8241C118.259 63.0721 115.193 61.3201 109.937 61.3201C96.3589 61.3201 88.0369 68.7661 88.0369 81.0301C88.0369 86.7241 90.2269 96.3601 90.2269 96.3601L90.6649 98.5501L88.9129 100.74C88.4749 100.74 87.5989 102.054 87.5989 103.806C87.5989 105.996 90.2269 108.624 91.5409 109.5L93.2929 110.814V113.004C93.2929 119.574 98.9869 123.078 98.9869 123.516L101.177 124.83V136.218C101.177 146.73 89.7889 151.986 79.2769 156.366C74.4589 158.118 67.8889 161.184 67.0129 163.374Z" fill="black"/>
</svg>
