<svg width="200" height="200" viewBox="0 0 200 200" fill="none" xmlns="http://www.w3.org/2000/svg">
<circle cx="100" cy="100" r="100" fill="white"/>
<path fill-rule="evenodd" clip-rule="evenodd" d="M110 92.5C110 95.1522 108.946 97.6957 107.071 99.5711C105.196 101.446 102.652 102.5 100 102.5C97.3478 102.5 94.8043 101.446 92.9289 99.5711C91.0536 97.6957 90 95.1522 90 92.5C90 89.8478 91.0536 87.3043 92.9289 85.4289C94.8043 83.5536 97.3478 82.5 100 82.5C102.652 82.5 105.196 83.5536 107.071 85.4289C108.946 87.3043 110 89.8478 110 92.5ZM105 92.5C105 93.8261 104.473 95.0979 103.536 96.0355C102.598 96.9732 101.326 97.5 100 97.5C98.6739 97.5 97.4021 96.9732 96.4645 96.0355C95.5268 95.0979 95 93.8261 95 92.5C95 91.1739 95.5268 89.9021 96.4645 88.9645C97.4021 88.0268 98.6739 87.5 100 87.5C101.326 87.5 102.598 88.0268 103.536 88.9645C104.473 89.9021 105 91.1739 105 92.5Z" fill="#888B8C"/>
<path fill-rule="evenodd" clip-rule="evenodd" d="M100 72.5C84.8125 72.5 72.5 84.8125 72.5 100C72.5 115.188 84.8125 127.5 100 127.5C115.188 127.5 127.5 115.188 127.5 100C127.5 84.8125 115.188 72.5 100 72.5ZM77.5 100C77.5 105.225 79.2825 110.035 82.27 113.855C84.3681 111.1 87.0748 108.867 90.1786 107.331C93.2824 105.795 96.6994 104.997 100.163 105C103.581 104.997 106.955 105.774 110.027 107.272C113.1 108.77 115.79 110.95 117.893 113.645C120.059 110.804 121.517 107.488 122.147 103.971C122.777 100.455 122.561 96.8388 121.516 93.4225C120.471 90.0061 118.628 86.8876 116.139 84.3251C113.649 81.7626 110.586 79.8296 107.201 78.6863C103.816 77.5429 100.208 77.2219 96.6747 77.7499C93.1413 78.2779 89.7845 79.6397 86.8819 81.7226C83.9794 83.8055 81.6145 86.5497 79.9831 89.728C78.3516 92.9063 77.5005 96.4274 77.5 100ZM100 122.5C94.8349 122.508 89.8257 120.731 85.82 117.47C87.4323 115.162 89.5783 113.277 92.0755 111.977C94.5726 110.676 97.347 109.998 100.163 110C102.943 109.998 105.684 110.659 108.157 111.929C110.631 113.198 112.766 115.04 114.385 117.3C110.348 120.667 105.256 122.507 100 122.5Z" fill="#888B8C"/>
</svg>
